<svg aria-hidden="true" style="position: absolute; width: 0; height: 0; overflow: hidden;" version="1.1" xmlns="http://www.w3.org/2000/svg" xmlns:xlink="http://www.w3.org/1999/xlink">
<defs>
<symbol id="icon-Illustration" viewBox="0 0 33 32">
<path fill="#fff" style="fill: var(--color1, #fff)" d="M32.446 16.202l-11.331 7.206c-0.079 0.050-0.147 0.115-0.2 0.191s-0.091 0.162-0.112 0.253c-0.020 0.091-0.022 0.185-0.006 0.277s0.050 0.179 0.101 0.258l3.69 5.783c0.050 0.079 0.115 0.147 0.192 0.2s0.163 0.091 0.254 0.111 0.185 0.022 0.277 0.006c0.092-0.016 0.18-0.050 0.258-0.1l6.877-4.374v-9.811z"></path>
<path fill="#0f0f0f" style="fill: var(--color2, #0f0f0f)" d="M25.189 30.537c-0.126 0-0.25-0.031-0.361-0.092s-0.204-0.148-0.272-0.254l-3.69-5.783c-0.106-0.167-0.142-0.37-0.099-0.563s0.161-0.362 0.328-0.469l11.331-7.206c0.006-0.004 0.013-0.006 0.019-0.006s0.014 0.001 0.020 0.005c0.006 0.003 0.011 0.008 0.015 0.014s0.005 0.013 0.005 0.019v9.812c0 0.006-0.002 0.013-0.005 0.018s-0.007 0.010-0.013 0.014l-6.877 4.373c-0.12 0.077-0.259 0.117-0.402 0.117zM32.408 16.272l-11.272 7.168c-0.15 0.096-0.256 0.247-0.295 0.421s-0.007 0.356 0.089 0.506l3.69 5.783c0.096 0.15 0.247 0.256 0.422 0.294s0.356 0.007 0.507-0.089l6.859-4.363-0-9.721z"></path>
<path fill="#0f0f0f" style="fill: var(--color2, #0f0f0f)" d="M21.619 24.507c-0.008-0-0.016-0.003-0.023-0.008s-0.011-0.012-0.014-0.020c-0.002-0.008-0.002-0.016 0.001-0.024s0.008-0.014 0.015-0.019c0.572-0.364 1.145-0.73 1.717-1.097 1.365-0.873 2.776-1.776 4.171-2.647 0.009-0.005 0.019-0.007 0.029-0.005s0.019 0.008 0.024 0.017c0.005 0.009 0.007 0.019 0.005 0.029s-0.008 0.019-0.017 0.024c-1.395 0.871-2.806 1.774-4.17 2.647-0.573 0.367-1.145 0.732-1.716 1.097-0.007 0.004-0.014 0.006-0.022 0.005z"></path>
<path fill="#0f0f0f" style="fill: var(--color2, #0f0f0f)" d="M21.878 23.571c0.019 0.030 0.029 0.066 0.028 0.102s-0.012 0.071-0.033 0.1-0.050 0.052-0.083 0.065c-0.034 0.013-0.070 0.016-0.105 0.008s-0.067-0.026-0.092-0.052c-0.025-0.026-0.041-0.059-0.048-0.094s-0.002-0.072 0.013-0.105c0.015-0.033 0.038-0.061 0.069-0.080 0.020-0.013 0.043-0.021 0.066-0.026s0.048-0.004 0.071 0.002c0.023 0.005 0.045 0.015 0.065 0.029s0.036 0.031 0.049 0.051z"></path>
<path fill="#0f0f0f" style="fill: var(--color2, #0f0f0f)" d="M22.493 23.18c0.019 0.030 0.029 0.066 0.029 0.102s-0.012 0.071-0.033 0.1-0.050 0.052-0.083 0.065c-0.034 0.013-0.070 0.016-0.105 0.008s-0.067-0.026-0.092-0.052c-0.025-0.026-0.042-0.059-0.048-0.094s-0.002-0.072 0.013-0.105c0.015-0.033 0.038-0.061 0.069-0.080 0.020-0.013 0.043-0.022 0.066-0.026s0.048-0.004 0.071 0.002c0.023 0.005 0.046 0.015 0.065 0.029s0.036 0.031 0.049 0.051z"></path>
<path fill="#0f0f0f" style="fill: var(--color2, #0f0f0f)" d="M23.107 22.789c0.019 0.030 0.029 0.066 0.029 0.102s-0.012 0.071-0.033 0.1-0.050 0.052-0.083 0.065c-0.034 0.013-0.070 0.016-0.105 0.008s-0.067-0.026-0.092-0.052c-0.025-0.026-0.041-0.059-0.048-0.094s-0.002-0.072 0.013-0.105c0.015-0.033 0.038-0.061 0.069-0.080 0.020-0.013 0.043-0.022 0.066-0.026s0.048-0.004 0.071 0.002 0.045 0.015 0.065 0.029c0.020 0.014 0.036 0.031 0.049 0.051z"></path>
<path fill="#0f0f0f" style="fill: var(--color2, #0f0f0f)" d="M25.182 21.508c-0.009 0-0.017-0.003-0.023-0.008s-0.012-0.012-0.014-0.020c-0.002-0.008-0.002-0.017 0.002-0.025s0.009-0.014 0.016-0.019c0.438-0.255 0.858-0.532 1.265-0.801 0.346-0.229 0.705-0.465 1.068-0.683 0.004-0.003 0.009-0.005 0.014-0.006s0.011-0.001 0.016 0c0.005 0.001 0.010 0.003 0.014 0.006s0.008 0.007 0.011 0.011 0.005 0.009 0.005 0.015c0.001 0.005 0 0.011-0.001 0.015s-0.004 0.010-0.007 0.014c-0.003 0.004-0.007 0.007-0.012 0.010-0.363 0.218-0.72 0.454-1.066 0.682-0.407 0.269-0.828 0.547-1.269 0.803-0.006 0.003-0.012 0.005-0.019 0.005z"></path>
<path fill="#0f0f0f" style="fill: var(--color2, #0f0f0f)" d="M23.476 22.592c-0.008-0-0.016-0.003-0.022-0.008s-0.011-0.012-0.013-0.020c-0.002-0.008-0.002-0.016 0.001-0.024s0.008-0.014 0.015-0.019l0.763-0.485c0.009-0.005 0.019-0.007 0.029-0.004s0.018 0.008 0.023 0.017 0.007 0.019 0.005 0.028c-0.002 0.010-0.008 0.018-0.016 0.024l-0.763 0.485c-0.006 0.004-0.013 0.006-0.021 0.005z"></path>
<path fill="#0f0f0f" style="fill: var(--color2, #0f0f0f)" d="M25.14 29.076c-0.003 0-0.006 0-0.008 0-0.005-0.001-0.010-0.003-0.014-0.006s-0.008-0.007-0.010-0.011l-2.509-3.933c-0.005-0.009-0.007-0.019-0.005-0.029s0.008-0.018 0.017-0.024l3.939-2.505c0.009-0.005 0.019-0.007 0.029-0.005s0.018 0.008 0.024 0.017l2.509 3.933c0.005 0.009 0.007 0.019 0.005 0.029s-0.008 0.018-0.017 0.024l-3.939 2.505c-0.006 0.004-0.013 0.006-0.020 0.006zM22.684 25.117l2.468 3.868 3.874-2.464-2.468-3.868-3.874 2.464z"></path>
<path fill="#0f0f0f" style="fill: var(--color2, #0f0f0f)" d="M28.155 21.591l-0.86 0.547 0.548 0.859 0.86-0.547-0.548-0.859z"></path>
<path fill="#0f0f0f" style="fill: var(--color2, #0f0f0f)" d="M32.446 18.863l-3.703 2.355 0.548 0.859 3.155-2.006v-1.207z"></path>
<path fill="#0f0f0f" style="fill: var(--color2, #0f0f0f)" d="M29.136 23.128l-0.86 0.547 0.548 0.859 0.86-0.547-0.548-0.859z"></path>
<path fill="#0f0f0f" style="fill: var(--color2, #0f0f0f)" d="M32.446 21.023l-2.722 1.731 0.548 0.859 2.174-1.383v-1.207z"></path>
<path fill="#0f0f0f" style="fill: var(--color2, #0f0f0f)" d="M30.116 24.665l-0.86 0.547 0.548 0.859 0.86-0.547-0.548-0.859z"></path>
<path fill="#fff" style="fill: var(--color1, #fff)" d="M32.446 23.184l-1.741 1.108 0.548 0.859 1.193-0.759v-1.207z"></path>
<path fill="#0f0f0f" style="fill: var(--color2, #0f0f0f)" d="M8.673 28.932l-0.089-0.324-0.368 0.017c-0.034-0.071-0.073-0.139-0.118-0.203l0.195-0.311-0.239-0.238-0.31 0.198c-0.065-0.044-0.133-0.083-0.204-0.116l0.013-0.367-0.326-0.085-0.169 0.326c-0.078-0.006-0.157-0.005-0.235 0.002l-0.173-0.324-0.325 0.089 0.018 0.367c-0.071 0.034-0.139 0.073-0.203 0.118l-0.312-0.194-0.237 0.239 0.198 0.309c-0.044 0.064-0.083 0.133-0.116 0.203l-0.368-0.013-0.085 0.325 0.326 0.169c-0.006 0.078-0.005 0.156 0.002 0.234l-0.325 0.173 0.089 0.325 0.368-0.017c0.034 0.071 0.073 0.138 0.118 0.203l-0.195 0.311 0.239 0.237 0.31-0.198c0.065 0.044 0.133 0.083 0.204 0.116l-0.013 0.367 0.326 0.085 0.169-0.326c0.078 0.006 0.157 0.005 0.235-0.002l0.173 0.324 0.325-0.089-0.018-0.367c0.071-0.034 0.139-0.073 0.203-0.118l0.312 0.195 0.237-0.239-0.198-0.308c0.044-0.064 0.083-0.133 0.116-0.203l0.368 0.013 0.085-0.325-0.326-0.169c0.006-0.078 0.005-0.156-0.002-0.234l0.325-0.173zM7.176 30.064c-0.165 0.045-0.341 0.041-0.503-0.014s-0.306-0.155-0.411-0.291c-0.105-0.135-0.168-0.299-0.18-0.47s0.027-0.341 0.112-0.49 0.212-0.269 0.366-0.346c0.153-0.077 0.326-0.106 0.496-0.085s0.33 0.093 0.46 0.205c0.13 0.112 0.223 0.26 0.268 0.425 0.061 0.221 0.031 0.458-0.083 0.657s-0.303 0.346-0.524 0.406z"></path>
<path fill="#0f0f0f" style="fill: var(--color2, #0f0f0f)" d="M14.060 25.571l-0.152-0.555-0.629 0.029c-0.057-0.121-0.125-0.237-0.202-0.347l0.333-0.533-0.41-0.405-0.531 0.339c-0.11-0.076-0.227-0.142-0.349-0.198l0.022-0.628-0.558-0.146-0.289 0.558c-0.134-0.010-0.268-0.009-0.402 0.003l-0.296-0.555-0.556 0.152 0.029 0.628c-0.121 0.057-0.237 0.125-0.347 0.202l-0.534-0.332-0.405 0.409 0.339 0.53c-0.076 0.11-0.142 0.227-0.199 0.348l-0.63-0.022-0.146 0.557 0.558 0.289c-0.010 0.134-0.009 0.268 0.003 0.401l-0.556 0.295 0.152 0.555 0.629-0.029c0.057 0.121 0.125 0.237 0.202 0.347l-0.333 0.533 0.41 0.405 0.531-0.339c0.111 0.076 0.227 0.142 0.349 0.198l-0.022 0.628 0.558 0.146 0.29-0.557c0.134 0.010 0.268 0.009 0.402-0.003l0.296 0.554 0.556-0.152-0.029-0.628c0.121-0.057 0.237-0.125 0.347-0.202l0.534 0.332 0.405-0.409-0.339-0.53c0.076-0.11 0.142-0.227 0.199-0.348l0.63 0.022 0.146-0.557-0.558-0.289c0.010-0.134 0.009-0.268-0.003-0.401l0.556-0.295zM11.499 27.509c-0.283 0.077-0.583 0.069-0.861-0.023s-0.523-0.266-0.703-0.497c-0.18-0.232-0.287-0.511-0.308-0.803s0.046-0.584 0.191-0.839 0.363-0.46 0.626-0.591c0.263-0.131 0.558-0.181 0.849-0.145s0.565 0.159 0.787 0.351c0.222 0.192 0.382 0.445 0.459 0.728 0.051 0.188 0.065 0.384 0.041 0.577s-0.087 0.379-0.183 0.549c-0.097 0.169-0.226 0.317-0.379 0.437s-0.33 0.207-0.518 0.259z"></path>
<path fill="#fff" style="fill: var(--color1, #fff)" d="M0.317 13.7l6.6 12.773c-0.644-1.246 1.035-3.496 4.1-5.871 0.178-0.138 0.302-0.335 0.35-0.555s0.018-0.45-0.086-0.65l-5.697-11.025c-0.279-0.54-0.984-0.694-1.461-0.315-2.879 2.29-4.43 4.437-3.807 5.642z"></path>
<path fill="#0f0f0f" style="fill: var(--color2, #0f0f0f)" d="M6.917 26.512c-0.007 0-0.014-0.002-0.021-0.005s-0.011-0.009-0.014-0.015l-6.599-12.773c-0.307-0.595-0.102-1.443 0.593-2.454 0.667-0.97 1.782-2.089 3.224-3.235 0.116-0.092 0.252-0.157 0.397-0.191s0.295-0.035 0.44-0.004c0.145 0.031 0.282 0.094 0.4 0.185s0.214 0.205 0.282 0.337l5.696 11.024c0.108 0.208 0.139 0.447 0.089 0.676s-0.179 0.433-0.364 0.577c-1.529 1.185-2.716 2.343-3.433 3.351-0.732 1.029-0.96 1.884-0.657 2.471v0.001c0.003 0.005 0.004 0.009 0.005 0.015s-0 0.010-0.002 0.015-0.004 0.009-0.007 0.013c-0.003 0.004-0.007 0.007-0.012 0.009s-0.011 0.004-0.016 0.003zM0.35 13.683l6.404 12.394c-0.166-1.273 1.366-3.281 4.239-5.505 0.171-0.133 0.29-0.321 0.336-0.532s0.017-0.432-0.082-0.624l-5.697-11.024c-0.063-0.122-0.152-0.228-0.261-0.312s-0.235-0.142-0.369-0.17c-0.134-0.029-0.273-0.028-0.407 0.003s-0.259 0.091-0.366 0.177c-2.968 2.361-4.388 4.452-3.798 5.594z"></path>
<path fill="#fff" style="fill: var(--color1, #fff)" d="M0.213 14.413l6.6 12.773c-0.644-1.246 1.035-3.497 4.1-5.871 0.178-0.138 0.302-0.335 0.35-0.555s0.018-0.45-0.086-0.65l-5.697-11.025c-0.279-0.54-0.984-0.694-1.461-0.315-2.878 2.289-4.43 4.436-3.807 5.642z"></path>
<path fill="#0f0f0f" style="fill: var(--color2, #0f0f0f)" d="M6.814 27.225c-0.007 0-0.014-0.002-0.021-0.005s-0.011-0.009-0.015-0.015l-6.599-12.773c-0.307-0.595-0.102-1.443 0.593-2.454 0.667-0.97 1.782-2.089 3.224-3.235 0.116-0.092 0.252-0.157 0.397-0.191s0.295-0.035 0.44-0.004c0.145 0.031 0.282 0.094 0.4 0.185s0.214 0.205 0.282 0.337l5.697 11.024c0.108 0.208 0.139 0.447 0.089 0.676s-0.179 0.433-0.364 0.577c-1.529 1.185-2.716 2.343-3.433 3.351-0.733 1.030-0.96 1.885-0.656 2.473 0.003 0.005 0.004 0.009 0.004 0.015s-0 0.010-0.002 0.015c-0.002 0.005-0.004 0.009-0.007 0.013s-0.007 0.007-0.012 0.009c-0.006 0.002-0.012 0.003-0.018 0.003zM0.247 14.396l6.404 12.394c-0.165-1.273 1.366-3.281 4.239-5.505 0.171-0.133 0.29-0.321 0.336-0.532s0.017-0.432-0.082-0.624l-5.697-11.025c-0.063-0.122-0.152-0.228-0.261-0.312s-0.235-0.142-0.369-0.171c-0.134-0.029-0.273-0.028-0.407 0.003s-0.259 0.091-0.366 0.177c-2.968 2.361-4.388 4.452-3.797 5.594z"></path>
<path fill="#fff" style="fill: var(--color1, #fff)" d="M15.369 2.935l5.706 11.043c0.108 0.21 0.29 0.373 0.511 0.458s0.465 0.087 0.686 0.005c4.704-1.747 8.465-2.091 9.223-0.624l-6.6-12.773c-0.746-1.443-4.398-1.133-8.996 0.541-0.129 0.047-0.247 0.121-0.345 0.217s-0.175 0.212-0.225 0.339-0.072 0.265-0.065 0.402c0.007 0.137 0.043 0.271 0.106 0.393z"></path>
<path fill="#0f0f0f" style="fill: var(--color2, #0f0f0f)" d="M21.935 14.539c-0.185 0-0.366-0.051-0.524-0.147s-0.286-0.233-0.371-0.397l-5.706-11.043c-0.065-0.127-0.103-0.266-0.111-0.409s0.016-0.285 0.068-0.418 0.132-0.253 0.234-0.353c0.102-0.1 0.225-0.177 0.359-0.225 2.295-0.836 4.354-1.334 5.953-1.442 1.653-0.111 2.722 0.207 3.090 0.919l6.6 12.773c0.004 0.009 0.004 0.019 0.001 0.028s-0.010 0.017-0.019 0.021c-0.009 0.005-0.019 0.005-0.028 0.003s-0.017-0.009-0.022-0.017c-0.359-0.695-1.429-0.997-3.094-0.872-1.638 0.122-3.741 0.646-6.081 1.515-0.112 0.042-0.23 0.063-0.349 0.063zM15.402 2.917l5.706 11.043c0.104 0.201 0.279 0.358 0.49 0.44s0.446 0.083 0.659 0.005c4.454-1.654 7.872-1.997 9.006-0.949l-6.404-12.395c-0.713-1.38-4.226-1.16-8.949 0.56-0.124 0.045-0.237 0.116-0.331 0.208s-0.168 0.203-0.216 0.326c-0.048 0.123-0.069 0.254-0.063 0.386s0.042 0.26 0.102 0.377h-0.001z"></path>
<path fill="#fff" style="fill: var(--color1, #fff)" d="M15.265 3.648l5.706 11.043c0.108 0.21 0.29 0.373 0.511 0.458s0.465 0.087 0.686 0.005c4.704-1.747 8.465-2.091 9.223-0.624l-6.6-12.773c-0.746-1.443-4.398-1.133-8.996 0.541-0.129 0.047-0.247 0.121-0.345 0.217s-0.175 0.212-0.225 0.339c-0.050 0.128-0.072 0.265-0.065 0.402s0.043 0.271 0.106 0.393z"></path>
<path fill="#0f0f0f" style="fill: var(--color2, #0f0f0f)" d="M21.832 15.253c-0.185 0-0.366-0.051-0.524-0.147s-0.286-0.233-0.371-0.397l-5.706-11.043c-0.065-0.127-0.103-0.266-0.111-0.409s0.016-0.285 0.068-0.418c0.052-0.133 0.132-0.253 0.234-0.353s0.225-0.177 0.359-0.225c2.295-0.836 4.353-1.334 5.953-1.442 1.654-0.111 2.722 0.207 3.090 0.919l6.6 12.773c0.004 0.009 0.004 0.019 0 0.028s-0.010 0.016-0.019 0.021c-0.009 0.004-0.018 0.005-0.028 0.003s-0.017-0.008-0.022-0.017c-0.359-0.695-1.429-0.997-3.095-0.872-1.639 0.122-3.741 0.647-6.081 1.515-0.112 0.042-0.23 0.063-0.35 0.063zM15.299 3.631l5.706 11.043c0.104 0.201 0.279 0.358 0.49 0.44s0.446 0.083 0.659 0.005c4.454-1.654 7.872-1.997 9.006-0.949l-6.404-12.395c-0.713-1.38-4.225-1.16-8.949 0.56-0.124 0.045-0.237 0.116-0.331 0.208s-0.168 0.203-0.216 0.326c-0.048 0.123-0.069 0.254-0.063 0.386s0.042 0.26 0.102 0.377h-0.001z"></path>
<path fill="#fff" style="fill: var(--color1, #fff)" d="M22 7.839c-0.134 0.045-0.273 0.085-0.416 0.12-0.914 0.221-1.1 0-3.49-0.083-2.919-0.102-3.906 0.183-4.595 0.484-0.392 0.171-0.703 0.355-1.248 0.677-1.853 1.095-2.327 1.785-2.81 1.63-0.111-0.036-0.221-0.116-0.321-0.271-0.741 0.558-1.586 0.435-2.049 0.299 0 0.105 0.005 0.21 0.014 0.319 0.028 0.313 0.076 0.861 0.413 1.323 0.726 0.995 2.518 1.215 4.43 0.565-0.121 0.262-1.097 2.466 0.053 4.517 1.19 2.117 3.79 2.543 5.499 2.252 2.787-0.474 5.016-3.162 4.635-4.761-0.066-0.275-0.354-0.673-0.928-1.457-0.679-0.927-1.294-1.65-1.728-2.136 0.467-0.028 2.079-0.184 3.484-1.476 0.128-0.117 0.245-0.237 0.355-0.358-0.8-0.267-1.15-1.090-1.298-1.644z"></path>
<path fill="#0f0f0f" style="fill: var(--color2, #0f0f0f)" d="M16.485 19.791c-0.668 0-1.349-0.105-1.96-0.307-1.146-0.379-2.036-1.087-2.575-2.047-1.066-1.9-0.333-3.915-0.091-4.471-1.909 0.626-3.666 0.386-4.391-0.606-0.344-0.471-0.392-1.016-0.42-1.342-0.009-0.105-0.014-0.213-0.014-0.322-0-0.006 0.001-0.012 0.004-0.017s0.007-0.010 0.011-0.014c0.005-0.004 0.010-0.006 0.016-0.007s0.012-0.001 0.018 0.001c0.438 0.128 1.28 0.259 2.014-0.293 0.004-0.003 0.009-0.005 0.014-0.007s0.011-0.001 0.016-0c0.005 0.001 0.010 0.003 0.015 0.006s0.008 0.007 0.011 0.011c0.086 0.133 0.187 0.218 0.301 0.255 0.267 0.086 0.545-0.115 1.099-0.514 0.388-0.28 0.92-0.663 1.679-1.112 0.553-0.327 0.857-0.507 1.252-0.679 0.664-0.29 1.623-0.591 4.611-0.487 0.958 0.033 1.561 0.088 2.001 0.129 0.663 0.061 0.937 0.086 1.479-0.045 0.136-0.033 0.275-0.073 0.413-0.119 0.005-0.002 0.010-0.002 0.015-0.002s0.010 0.002 0.015 0.004 0.009 0.006 0.012 0.010c0.003 0.004 0.006 0.009 0.007 0.014 0.16 0.597 0.51 1.363 1.273 1.617 0.006 0.002 0.012 0.006 0.016 0.010s0.008 0.010 0.009 0.017c0.002 0.006 0.002 0.012 0 0.019s-0.005 0.012-0.009 0.016c-0.115 0.126-0.235 0.248-0.357 0.36-1.246 1.146-2.653 1.422-3.429 1.48 0.586 0.66 1.15 1.36 1.678 2.081 0.601 0.82 0.869 1.194 0.935 1.471 0.142 0.595-0.062 1.349-0.575 2.122-0.903 1.363-2.509 2.417-4.091 2.686-0.331 0.055-0.666 0.083-1.002 0.082zM11.93 12.862c0.006 0 0.013 0.002 0.018 0.005s0.010 0.008 0.014 0.013c0.004 0.005 0.006 0.012 0.006 0.018s-0.001 0.013-0.003 0.019c-0.186 0.402-1.056 2.507 0.053 4.482 1.113 1.983 3.609 2.548 5.457 2.234 1.563-0.266 3.149-1.307 4.040-2.653 0.5-0.755 0.701-1.488 0.564-2.062-0.065-0.273-0.37-0.689-0.922-1.443-0.543-0.74-1.123-1.458-1.726-2.133-0.005-0.005-0.008-0.012-0.009-0.019s-0-0.014 0.002-0.021c0.003-0.007 0.007-0.012 0.013-0.017s0.013-0.007 0.020-0.007c0.746-0.045 2.188-0.297 3.46-1.466 0.107-0.098 0.212-0.203 0.313-0.313-0.74-0.277-1.092-1.017-1.257-1.611-0.127 0.041-0.255 0.078-0.381 0.108-0.554 0.134-0.852 0.107-1.504 0.047-0.439-0.040-1.041-0.095-1.997-0.128-2.973-0.103-3.922 0.194-4.578 0.481-0.39 0.171-0.693 0.35-1.244 0.675-0.756 0.447-1.286 0.829-1.674 1.107-0.575 0.415-0.864 0.623-1.168 0.525-0.121-0.039-0.228-0.124-0.319-0.253-0.726 0.525-1.544 0.42-2 0.296 0.001 0.090 0.006 0.179 0.013 0.265 0.028 0.318 0.075 0.85 0.406 1.304 0.715 0.979 2.478 1.2 4.387 0.551 0.004-0.001 0.009-0.002 0.013-0.001z"></path>
<path fill="#fff" style="fill: var(--color1, #fff)" d="M25.563 5.85l-0.25 0.159 0.382-0.686c0.014-0.026 0.018-0.056 0.012-0.085s-0.024-0.054-0.049-0.070-0.054-0.023-0.084-0.019c-0.029 0.004-0.056 0.019-0.075 0.042l-0.508 0.621 0.349-0.876c0.016-0.039 0.016-0.083-0-0.122s-0.048-0.070-0.087-0.086-0.083-0.016-0.122 0c-0.039 0.016-0.070 0.048-0.086 0.087l-0.334 0.791 0.116-0.689c0.014-0.082-0.047-0.162-0.131-0.162-0.053 0-0.102 0.030-0.123 0.132-0.047 0.243-0.294 1.216-0.294 1.216s-0.107-0.038-0.245-0.226c-0.138-0.187-0.195-0.084-0.195-0.084-0.085 0.286 0.121 0.598 0.27 0.777-0.506 0.46-1.209 0.968-2.111 1.268 0.148 0.554 0.498 1.377 1.298 1.644 0.876-0.965 1.198-2.006 1.318-2.53 0.353-0.145 0.95-0.796 1.082-0.944 0.017-0.019 0.026-0.043 0.027-0.069s-0.009-0.050-0.025-0.069c-0.017-0.019-0.039-0.032-0.065-0.036s-0.051 0.002-0.072 0.015l0.001 0.001z"></path>
<path fill="#0f0f0f" style="fill: var(--color2, #0f0f0f)" d="M23.297 9.521c-0.004 0-0.008-0.001-0.012-0.002-0.795-0.266-1.158-1.055-1.323-1.67-0.003-0.009-0.001-0.019 0.003-0.028s0.012-0.015 0.022-0.018c0.733-0.244 1.429-0.66 2.070-1.236-0.167-0.208-0.337-0.505-0.254-0.784 0.001-0.003 0.002-0.005 0.003-0.008 0.008-0.014 0.019-0.025 0.033-0.034s0.029-0.013 0.045-0.015c0.057-0.004 0.116 0.038 0.182 0.128 0.080 0.108 0.149 0.164 0.19 0.191 0.050-0.199 0.241-0.958 0.282-1.166 0.027-0.141 0.111-0.162 0.159-0.163h0.001c0.024 0 0.048 0.005 0.070 0.016s0.041 0.025 0.057 0.044c0.017 0.020 0.030 0.044 0.037 0.069s0.008 0.052 0.004 0.078l-0.061 0.366 0.206-0.488c0.020-0.049 0.058-0.088 0.107-0.108s0.103-0.021 0.152-0.001c0.049 0.020 0.088 0.058 0.108 0.107s0.021 0.103 0.001 0.152l-0.257 0.645 0.349-0.428c0.025-0.029 0.060-0.047 0.098-0.052s0.076 0.004 0.108 0.026c0.032 0.021 0.054 0.054 0.064 0.090s0.006 0.076-0.011 0.11l-0.308 0.553 0.121-0.077c0.022-0.014 0.047-0.022 0.072-0.022s0.051 0.005 0.074 0.018c0.023 0.012 0.041 0.030 0.055 0.053s0.020 0.047 0.020 0.073c0 0.035-0.013 0.069-0.036 0.095-0.165 0.184-0.723 0.787-1.078 0.946-0.22 0.941-0.675 1.81-1.323 2.528-0.004 0.004-0.008 0.007-0.013 0.009s-0.010 0.003-0.015 0.003zM22.046 7.863c0.162 0.585 0.508 1.317 1.24 1.574 0.634-0.709 1.079-1.567 1.293-2.494 0.001-0.006 0.004-0.011 0.008-0.016s0.009-0.008 0.015-0.011c0.348-0.143 0.951-0.803 1.069-0.934 0.011-0.012 0.017-0.028 0.017-0.044 0-0.012-0.003-0.024-0.009-0.034s-0.015-0.019-0.025-0.024-0.022-0.009-0.034-0.008c-0.012 0-0.024 0.004-0.034 0.010l-0.25 0.159c-0.007 0.005-0.016 0.007-0.024 0.006s-0.017-0.004-0.023-0.010c-0.006-0.006-0.010-0.014-0.012-0.022s0-0.017 0.005-0.025l0.382-0.686c0.006-0.011 0.010-0.024 0.010-0.036s-0.002-0.025-0.008-0.037c-0.006-0.012-0.015-0.023-0.026-0.031s-0.024-0.013-0.037-0.014c-0.013-0.002-0.027 0-0.040 0.005s-0.024 0.013-0.032 0.024l-0.508 0.621c-0.006 0.007-0.014 0.012-0.023 0.014s-0.018 0-0.026-0.005-0.014-0.012-0.017-0.021c-0.003-0.009-0.003-0.018 0.001-0.027l0.349-0.876c0.011-0.030 0.011-0.062-0.002-0.091s-0.036-0.052-0.065-0.064c-0.029-0.012-0.062-0.012-0.092-0s-0.053 0.035-0.066 0.064l-0.334 0.791c-0.004 0.009-0.011 0.015-0.019 0.019s-0.018 0.005-0.027 0.002-0.017-0.008-0.022-0.016c-0.005-0.008-0.007-0.017-0.006-0.026l0.115-0.689c0.002-0.015 0.002-0.030-0.003-0.045s-0.011-0.028-0.021-0.040c-0.009-0.010-0.019-0.018-0.031-0.024s-0.025-0.008-0.038-0.009c-0.017 0-0.065 0-0.084 0.101-0.047 0.242-0.285 1.178-0.295 1.218-0.001 0.005-0.004 0.010-0.007 0.014s-0.007 0.008-0.012 0.010c-0.005 0.003-0.010 0.004-0.015 0.004s-0.011-0-0.016-0.002c-0.005-0.002-0.12-0.045-0.263-0.239-0.068-0.092-0.106-0.097-0.115-0.097-0.005 0-0.010 0.003-0.014 0.007-0.076 0.272 0.132 0.577 0.264 0.736 0.006 0.008 0.009 0.017 0.009 0.027s-0.005 0.019-0.012 0.025c-0.647 0.588-1.35 1.014-2.091 1.266z"></path>
<path fill="#fff" style="fill: var(--color1, #fff)" d="M8.735 8.19c0.164-0.268 0.117-0.91-0.067-1.223-0.186-0.316-0.824-1.22-0.824-1.22-0.315 0.246 0.155 0.973 0.155 0.973-0.546 0.349-0.239 0.719-0.239 0.719-0.22 0.457 0.060 0.613 0.228 0.665-0.364 0.488-0.918 1.414-0.915 2.591 0.462 0.135 1.307 0.259 2.049-0.299-0.209-0.322-0.371-0.967-0.387-2.205z"></path>
<path fill="#0f0f0f" style="fill: var(--color2, #0f0f0f)" d="M7.845 10.846c-0.265-0.002-0.529-0.040-0.784-0.115-0.008-0.002-0.015-0.007-0.020-0.014s-0.008-0.015-0.008-0.023c-0.003-1.107 0.476-2.003 0.891-2.572-0.095-0.037-0.201-0.104-0.253-0.223-0.054-0.122-0.039-0.276 0.043-0.456-0.064-0.095-0.090-0.21-0.074-0.323 0.024-0.151 0.127-0.29 0.306-0.412-0.090-0.149-0.429-0.755-0.126-0.992 0.004-0.003 0.009-0.006 0.014-0.007s0.010-0.002 0.015-0.001c0.005 0.001 0.010 0.003 0.015 0.005s0.008 0.006 0.011 0.011c0.006 0.009 0.642 0.909 0.826 1.223 0.178 0.302 0.242 0.958 0.072 1.253 0.015 1.075 0.142 1.807 0.38 2.173 0.006 0.008 0.008 0.018 0.006 0.028s-0.007 0.018-0.015 0.024c-0.431 0.322-0.894 0.42-1.299 0.42zM7.11 10.665c0.438 0.123 1.246 0.237 1.959-0.28-0.234-0.389-0.359-1.127-0.373-2.194 0-0.007 0.002-0.014 0.006-0.021 0.15-0.245 0.114-0.874-0.067-1.183-0.162-0.275-0.677-1.010-0.797-1.182-0.221 0.247 0.189 0.887 0.193 0.894 0.005 0.009 0.007 0.019 0.005 0.029s-0.008 0.018-0.017 0.024c-0.18 0.115-0.282 0.243-0.303 0.38-0.014 0.1 0.012 0.201 0.072 0.283 0.005 0.006 0.008 0.013 0.009 0.020s-0 0.015-0.003 0.021c-0.081 0.168-0.098 0.307-0.052 0.412 0.050 0.115 0.167 0.171 0.256 0.198 0.006 0.002 0.011 0.005 0.016 0.009s0.008 0.010 0.010 0.015c0.002 0.006 0.002 0.012 0.001 0.018s-0.003 0.012-0.007 0.017c-0.411 0.552-0.901 1.439-0.907 2.539z"></path>
<path fill="#0f0f0f" style="fill: var(--color2, #0f0f0f)" d="M8.339 7.952c-0.009 0-0.018-0.003-0.025-0.009-0.011-0.009-0.267-0.235-0.149-0.488 0.094-0.202 0.080-0.225 0-0.355l-0.011-0.018c-0.030-0.048-0.046-0.104-0.046-0.161s0.016-0.113 0.047-0.161c0.003-0.005 0.007-0.008 0.012-0.011s0.010-0.005 0.016-0.005c0.005-0.001 0.011 0 0.016 0.002s0.010 0.005 0.014 0.008l0.368 0.34c0.007 0.007 0.012 0.017 0.012 0.027s-0.003 0.020-0.010 0.028c-0.007 0.007-0.017 0.012-0.027 0.012s-0.020-0.003-0.028-0.010l-0.33-0.305c-0.012 0.032-0.016 0.067-0.012 0.101s0.015 0.067 0.033 0.096l0.011 0.018c0.090 0.147 0.111 0.199 0.004 0.428-0.094 0.2 0.127 0.395 0.13 0.397 0.006 0.005 0.010 0.012 0.012 0.020s0.001 0.016-0.001 0.023c-0.003 0.007-0.008 0.014-0.014 0.018s-0.014 0.007-0.022 0.007l0.001-0z"></path>
<path fill="#0f0f0f" style="fill: var(--color2, #0f0f0f)" d="M7.981 7.652c-0.022 0-0.044-0.004-0.064-0.013s-0.039-0.021-0.054-0.037l-0.132-0.136c-0.006-0.007-0.010-0.017-0.009-0.027s0.005-0.019 0.012-0.026c0.007-0.007 0.016-0.011 0.026-0.011s0.019 0.003 0.027 0.010l0.132 0.136c0.015 0.016 0.036 0.025 0.058 0.026s0.043-0.006 0.060-0.019c0.008-0.006 0.018-0.008 0.027-0.007s0.019 0.006 0.025 0.014c0.006 0.008 0.009 0.017 0.009 0.027s-0.005 0.019-0.012 0.026c-0.029 0.024-0.066 0.037-0.104 0.037z"></path>
<path fill="#fff" style="fill: var(--color1, #fff)" d="M20.61 27.459c0.008 0.044 1.363 1.998 1.363 1.998l-1.095 0.286-1.078-1.683 0.809-0.601z"></path>
<path fill="#0f0f0f" style="fill: var(--color2, #0f0f0f)" d="M20.879 29.78c-0.006 0-0.013-0.002-0.018-0.005s-0.011-0.007-0.014-0.013l-1.078-1.683c-0.005-0.008-0.007-0.018-0.005-0.028s0.007-0.018 0.015-0.024l0.809-0.601c0.005-0.004 0.011-0.006 0.018-0.007s0.013-0 0.019 0.002c0.005 0.002 0.010 0.005 0.014 0.009s0.007 0.009 0.009 0.014c0.037 0.076 0.831 1.228 1.358 1.988 0.003 0.005 0.006 0.011 0.006 0.017s0 0.012-0.002 0.018c-0.002 0.006-0.006 0.011-0.010 0.015s-0.010 0.007-0.016 0.009l-1.093 0.285c-0.003 0.001-0.007 0.001-0.011 0.001zM19.852 28.069l1.044 1.629 1.013-0.265c-0.546-0.787-1.174-1.698-1.311-1.919l-0.747 0.554z"></path>
<path fill="#fff" style="fill: var(--color1, #fff)" d="M20.873 29.195c0 0 0.127-0.571 0.752-0.408 0 0 1.331 1.339 1.949 2.53 0.175 0.337-0.135 0.723-0.503 0.63-0.862-0.218-2.248-0.752-3.212-2.024 0 0 0.119-0.616 0.427-0.944l0.588 0.216z"></path>
<path fill="#0f0f0f" style="fill: var(--color2, #0f0f0f)" d="M23.182 32c-0.041 0-0.081-0.005-0.12-0.015-0.953-0.241-2.288-0.791-3.234-2.039-0.003-0.004-0.006-0.009-0.007-0.015s-0.001-0.011-0-0.016c0.005-0.026 0.125-0.63 0.437-0.963 0.005-0.006 0.012-0.009 0.019-0.011s0.015-0.001 0.022 0.001l0.549 0.201c0.026-0.078 0.098-0.245 0.263-0.345 0.142-0.087 0.318-0.103 0.523-0.050 0.007 0.002 0.013 0.005 0.017 0.010 0.013 0.013 1.342 1.357 1.956 2.54 0.037 0.073 0.055 0.155 0.052 0.236s-0.027 0.162-0.070 0.232c-0.043 0.070-0.103 0.128-0.174 0.169s-0.152 0.062-0.234 0.063l0.001 0.001zM19.9 29.914c0.932 1.221 2.243 1.759 3.181 1.997 0.075 0.019 0.155 0.016 0.228-0.009s0.139-0.070 0.187-0.131c0.049-0.061 0.078-0.134 0.086-0.211s-0.007-0.155-0.042-0.224c-0.585-1.127-1.827-2.404-1.935-2.514-0.179-0.045-0.332-0.030-0.453 0.043-0.188 0.114-0.241 0.336-0.241 0.338-0.001 0.005-0.004 0.010-0.007 0.015s-0.008 0.008-0.012 0.011-0.010 0.004-0.015 0.005c-0.005 0-0.011-0-0.016-0.002l-0.563-0.207c-0.257 0.291-0.376 0.793-0.397 0.89z"></path>
<path fill="#0f0f0f" style="fill: var(--color2, #0f0f0f)" d="M23.060 31.571c-0.47 0-1.485-0.208-2.954-1.623-0.006-0.007-0.009-0.016-0.008-0.026s0.004-0.018 0.011-0.025c0.006-0.007 0.015-0.011 0.024-0.012s0.019 0.002 0.026 0.007c1.999 1.925 3.161 1.574 3.172 1.569 0.010-0.003 0.020-0.002 0.029 0.003s0.015 0.012 0.019 0.022c0.003 0.009 0.003 0.020-0.002 0.029s-0.012 0.016-0.021 0.019c-0.013 0.005-0.113 0.036-0.295 0.036z"></path>
<path fill="#0f0f0f" style="fill: var(--color2, #0f0f0f)" d="M22.155 30.514c-0.006 0-0.011-0.001-0.016-0.004s-0.010-0.006-0.013-0.010c-0.007-0.008-0.010-0.018-0.009-0.028s0.006-0.020 0.013-0.026l0.477-0.405c0.008-0.006 0.018-0.009 0.027-0.007s0.019 0.006 0.025 0.013c0.006 0.008 0.010 0.017 0.009 0.027s-0.005 0.019-0.012 0.026l-0.477 0.405c-0.007 0.006-0.016 0.009-0.025 0.009z"></path>
<path fill="#0f0f0f" style="fill: var(--color2, #0f0f0f)" d="M21.817 30.163c-0.008 0-0.016-0.003-0.022-0.007s-0.011-0.011-0.014-0.019c-0.003-0.008-0.003-0.016-0.001-0.023s0.007-0.015 0.013-0.019l0.522-0.413c0.004-0.003 0.009-0.006 0.013-0.008s0.010-0.002 0.015-0.002c0.005 0 0.010 0.002 0.015 0.004s0.009 0.006 0.012 0.010 0.006 0.009 0.007 0.014c0.001 0.005 0.002 0.010 0.001 0.016s-0.003 0.010-0.005 0.015c-0.003 0.005-0.006 0.008-0.011 0.011l-0.521 0.413c-0.007 0.006-0.016 0.009-0.025 0.008z"></path>
<path fill="#fff" style="fill: var(--color1, #fff)" d="M17.263 23.011l-0.908 0.696 0.797 1.081 0.85-0.809-0.739-0.968z"></path>
<path fill="#0f0f0f" style="fill: var(--color2, #0f0f0f)" d="M17.152 24.826h-0.003c-0.005-0-0.011-0.002-0.015-0.005s-0.009-0.006-0.012-0.011l-0.797-1.082c-0.006-0.008-0.008-0.018-0.007-0.028s0.007-0.019 0.014-0.025l0.908-0.696c0.008-0.006 0.018-0.009 0.029-0.007s0.019 0.007 0.026 0.015l0.739 0.968c0.006 0.008 0.009 0.017 0.008 0.026s-0.005 0.018-0.012 0.025l-0.85 0.809c-0.007 0.007-0.017 0.011-0.027 0.011zM16.409 23.714l0.749 1.016 0.793-0.755-0.695-0.909-0.847 0.649z"></path>
<path fill="#fff" style="fill: var(--color1, #fff)" d="M17.692 24.661l-0.844-0.682-0.159-0.572c-0.443-0.011-0.94 0.319-1.213 0.531-0.061 0.047-0.105 0.114-0.122 0.19s-0.009 0.155 0.025 0.224c0.45 0.913 1.465 2.336 1.956 3.008 0.124 0.169 0.392 0.114 0.435-0.091 0.218-1.027-0.079-2.608-0.079-2.608z"></path>
<path fill="#0f0f0f" style="fill: var(--color2, #0f0f0f)" d="M17.532 27.497c-0.044 0-0.088-0.010-0.128-0.031s-0.074-0.049-0.1-0.085c-0.542-0.739-1.516-2.114-1.959-3.013-0.038-0.078-0.048-0.166-0.028-0.25s0.068-0.159 0.136-0.212c0.261-0.203 0.762-0.539 1.215-0.539h0.022c0.008 0 0.016 0.003 0.023 0.008s0.011 0.012 0.014 0.020l0.155 0.56 0.834 0.674c0.007 0.006 0.012 0.014 0.013 0.023 0.003 0.016 0.294 1.6 0.078 2.622-0.011 0.053-0.037 0.101-0.075 0.14s-0.087 0.064-0.14 0.075c-0.020 0.005-0.041 0.007-0.062 0.007zM16.66 23.445c-0.428 0.004-0.909 0.327-1.16 0.523-0.054 0.042-0.092 0.102-0.108 0.168s-0.008 0.137 0.022 0.199c0.441 0.894 1.412 2.264 1.952 3.001 0.023 0.032 0.056 0.057 0.093 0.071s0.078 0.017 0.117 0.008c0.038-0.008 0.074-0.027 0.101-0.054s0.047-0.063 0.055-0.101c0.202-0.957-0.048-2.421-0.076-2.578l-0.832-0.674c-0.006-0.005-0.011-0.012-0.013-0.020l-0.151-0.544z"></path>
<path fill="#0f0f0f" style="fill: var(--color2, #0f0f0f)" d="M17.409 26.988c-0.006 0-0.012-0.001-0.018-0.004s-0.010-0.007-0.014-0.012l-1.344-1.934c-0.093-0.137-0.134-0.304-0.115-0.469 0.033-0.322-0.097-0.652-0.098-0.656-0.003-0.009-0.003-0.020 0.002-0.028s0.012-0.016 0.021-0.020 0.019-0.004 0.029 0c0.009 0.004 0.017 0.011 0.021 0.020 0.006 0.014 0.139 0.351 0.103 0.692-0.017 0.147 0.019 0.295 0.102 0.417l1.344 1.933c0.003 0.004 0.005 0.009 0.006 0.014s0.001 0.010 0 0.015-0.003 0.010-0.006 0.014c-0.003 0.004-0.006 0.008-0.011 0.011-0.006 0.004-0.014 0.007-0.022 0.007z"></path>
<path fill="#0f0f0f" style="fill: var(--color2, #0f0f0f)" d="M18.167 13.83c0 0 2.592 2.043 3.963 3.955 0.188 0.263 0.3 0.572 0.326 0.893s-0.036 0.645-0.179 0.934c-0.631 1.28-1.997 3.576-4.11 4.721l-1.774-2.264c0 0 1.552-1.714 2.692-2.493l-2.909-3.255-0.723-1.635 2.714-0.857z"></path>
<path fill="#0f0f0f" style="fill: var(--color2, #0f0f0f)" d="M19.414 29.088c0.092 0.162 2.182-1.364 2.182-1.364s-1.599-1.869-4.14-11.366c-0.030-0.11-0.498-2.433-0.498-2.433l-3.473 1.817c0 0 0.61 3.997 5.929 13.346z"></path>
<path fill="#fff" style="fill: var(--color1, #fff)" d="M17.873 17.92c-0.008 0-0.017-0.003-0.023-0.008s-0.011-0.012-0.014-0.020l-0.327-1.192c-0.030-0.109-0.036-0.224-0.017-0.335s0.062-0.218 0.126-0.311l0.2-0.292c0.006-0.008 0.015-0.014 0.025-0.016s0.020 0 0.029 0.006c0.008 0.006 0.014 0.015 0.016 0.025s-0 0.020-0.006 0.029l-0.2 0.292c-0.058 0.084-0.097 0.18-0.113 0.281s-0.012 0.204 0.015 0.302l0.326 1.192c0.001 0.005 0.002 0.010 0.001 0.015s-0.002 0.010-0.005 0.014c-0.003 0.004-0.006 0.008-0.010 0.011s-0.009 0.005-0.013 0.007c-0.003 0.001-0.007 0.002-0.010 0.002z"></path>
<path fill="#fff" style="fill: var(--color1, #fff)" d="M19.995 24.153c-0.008-0-0.015-0.002-0.021-0.006s-0.011-0.010-0.014-0.017c-0.008-0.019-0.797-1.866-1.090-2.794-0.002-0.005-0.002-0.010-0.002-0.015s0.002-0.010 0.004-0.014c0.002-0.005 0.006-0.009 0.009-0.012s0.008-0.006 0.013-0.007 0.020-0.002 0.029 0.003c0.009 0.005 0.016 0.013 0.019 0.022 0.292 0.924 1.079 2.768 1.086 2.787 0.004 0.009 0.004 0.020 0 0.029s-0.011 0.017-0.021 0.021c-0.005 0.002-0.009 0.003-0.015 0.003z"></path>
<path fill="#fff" style="fill: var(--color1, #fff)" d="M12.668 9.591c0.066 1.384 0.263 4.837 0.624 6.224 0.011 0.042 0.031 0.081 0.059 0.114s0.062 0.060 0.102 0.079c0.039 0.019 0.082 0.028 0.126 0.029s0.086-0.009 0.126-0.027c0.828-0.373 3.178-1.368 4.966-1.504 0.060-0.005 0.117-0.023 0.169-0.053s0.096-0.072 0.129-0.121c0.033-0.050 0.055-0.106 0.063-0.165s0.003-0.119-0.016-0.176c-0.343-1.045-1.108-3.499-1.324-5.176-0.061-0.477-0.441-0.844-0.912-0.881-0.87-0.067-2.277-0.017-3.601 0.725-0.163 0.093-0.297 0.229-0.387 0.394s-0.132 0.351-0.122 0.538z"></path>
<path fill="#0f0f0f" style="fill: var(--color2, #0f0f0f)" d="M13.581 16.075c-0.050 0-0.1-0.011-0.146-0.033-0.044-0.021-0.083-0.051-0.114-0.088s-0.054-0.081-0.066-0.128c-0.362-1.387-0.558-4.82-0.626-6.232-0.019-0.396 0.189-0.775 0.529-0.966 1.31-0.734 2.694-0.801 3.623-0.729 0.486 0.038 0.884 0.422 0.948 0.914 0.217 1.685 0.997 4.176 1.322 5.169 0.020 0.062 0.027 0.128 0.018 0.193s-0.032 0.127-0.069 0.181c-0.036 0.055-0.085 0.1-0.141 0.133s-0.12 0.053-0.185 0.058c-1.761 0.133-4.051 1.093-4.953 1.5-0.044 0.020-0.091 0.030-0.139 0.030zM12.706 9.589c0.067 1.41 0.263 4.837 0.623 6.216 0.010 0.037 0.027 0.070 0.051 0.099s0.054 0.052 0.089 0.069c0.034 0.016 0.071 0.025 0.109 0.025s0.075-0.008 0.11-0.023c0.906-0.408 3.205-1.373 4.979-1.506 0.054-0.004 0.106-0.020 0.152-0.047s0.086-0.065 0.116-0.109c0.030-0.045 0.049-0.096 0.057-0.149s0.002-0.108-0.015-0.159c-0.326-0.995-1.108-3.491-1.326-5.183-0.059-0.456-0.428-0.812-0.877-0.847-0.92-0.072-2.287-0.005-3.579 0.72-0.316 0.177-0.508 0.528-0.49 0.896z"></path>
<path fill="#0f0f0f" style="fill: var(--color2, #0f0f0f)" d="M14.245 6.156c0 0-0.27-0.548-0.365-0.644s-0.169-0.198 0.111-0.385c0.28-0.186 1.012-0.686 1.46-0.683s0.762 0.286 0.624 0.49c-0.138 0.204-0.201 0.29-0.095 0.303s0.165 0.132-0.136 0.306c-0.301 0.174-1.352 0.93-1.599 0.614z"></path>
<path fill="#fff" style="fill: var(--color1, #fff)" d="M15.78 8.061l-0.157-0.832c0.471-0.236 0.281-0.564 0.21-0.825-0.076-0.282-0.309-0.893-0.309-0.893-0.387 0.227-1.145 0.159-1.145 0.159s0.109 0.173 0.046 0.258c-0.063 0.085-0.023 0.413-0.023 0.413s-0.135-0.127-0.28-0.030c-0.081 0.055 0.011 0.288 0.078 0.42s0.21 0.157 0.21 0.157 0.024-0.014 0.072 0.101l-0.257 1.353-0.505 0.21 1.124 0.152c0.176 0.024 0.354 0.013 0.526-0.033s0.332-0.124 0.473-0.232l0.403-0.308-0.465-0.071z"></path>
<path fill="#0f0f0f" style="fill: var(--color2, #0f0f0f)" d="M15.022 8.753c-0.061 0-0.122-0.004-0.182-0.012l-1.124-0.151c-0.008-0.001-0.016-0.005-0.022-0.011s-0.010-0.014-0.011-0.022c-0.001-0.008 0.001-0.017 0.005-0.024s0.011-0.013 0.019-0.016l0.486-0.201 0.251-1.321c-0.009-0.024-0.022-0.047-0.038-0.068h-0.001c-0.007-0.001-0.163-0.031-0.238-0.177-0.059-0.115-0.182-0.39-0.065-0.468 0.037-0.025 0.081-0.040 0.126-0.043s0.090 0.007 0.13 0.028c-0.008-0.11-0.012-0.29 0.038-0.359 0.038-0.052-0.023-0.176-0.048-0.215-0.004-0.006-0.006-0.013-0.006-0.020s0.002-0.014 0.006-0.020c0.004-0.006 0.009-0.011 0.015-0.014s0.014-0.005 0.021-0.004c0.007 0 0.751 0.064 1.122-0.154 0.005-0.003 0.010-0.005 0.016-0.005s0.011 0 0.017 0.002c0.005 0.002 0.010 0.005 0.014 0.009s0.007 0.009 0.009 0.014c0.009 0.025 0.235 0.616 0.311 0.896 0.009 0.035 0.021 0.070 0.033 0.107 0.076 0.237 0.17 0.531-0.238 0.749l0.146 0.775 0.438 0.066c0.007 0.001 0.014 0.004 0.020 0.009s0.010 0.012 0.011 0.019c0.002 0.007 0.002 0.015-0.001 0.022s-0.007 0.013-0.013 0.018l-0.403 0.308c-0.242 0.184-0.539 0.284-0.843 0.285zM13.867 8.533l0.983 0.132c0.345 0.046 0.693-0.047 0.969-0.257l0.331-0.253-0.376-0.056c-0.008-0.001-0.015-0.005-0.021-0.010s-0.010-0.013-0.011-0.021l-0.157-0.831c-0.002-0.008-0-0.017 0.003-0.024s0.010-0.013 0.017-0.017c0.379-0.19 0.3-0.434 0.225-0.671-0.012-0.038-0.024-0.074-0.034-0.111-0.063-0.234-0.239-0.706-0.293-0.848-0.333 0.169-0.867 0.157-1.058 0.147 0.030 0.066 0.061 0.169 0.011 0.238-0.037 0.050-0.032 0.256-0.017 0.385 0.001 0.008-0.001 0.016-0.004 0.023s-0.009 0.013-0.017 0.016c-0.007 0.004-0.015 0.005-0.023 0.004s-0.015-0.005-0.021-0.010c-0.005-0.004-0.115-0.105-0.232-0.026-0.035 0.023-0.010 0.171 0.091 0.37 0.050 0.099 0.154 0.129 0.178 0.135 0.006-0 0.012 0.001 0.018 0.003 0.020 0.007 0.049 0.027 0.089 0.122 0.003 0.007 0.004 0.015 0.002 0.022l-0.257 1.353c-0.001 0.006-0.004 0.012-0.008 0.017s-0.009 0.009-0.015 0.011l-0.374 0.156zM14.431 6.921c-0.002 0.001-0.003 0.002-0.005 0.002 0.002-0.001 0.003-0.002 0.005-0.003v0.001z"></path>
<path fill="#0f0f0f" style="fill: var(--color2, #0f0f0f)" d="M15.19 7.367c-0.43 0-0.59-0.332-0.592-0.336-0.004-0.009-0.005-0.020-0.001-0.029s0.011-0.017 0.020-0.022c0.009-0.004 0.020-0.005 0.030-0.001s0.017 0.011 0.022 0.020c0.010 0.021 0.24 0.49 0.941 0.196 0.005-0.002 0.010-0.003 0.015-0.003s0.010 0.001 0.015 0.003c0.005 0.002 0.009 0.005 0.012 0.008s0.006 0.008 0.008 0.012c0.002 0.005 0.003 0.010 0.003 0.015s-0.001 0.010-0.003 0.015c-0.002 0.005-0.005 0.009-0.008 0.013s-0.008 0.006-0.012 0.008c-0.175 0.073-0.323 0.101-0.449 0.101z"></path>
<path fill="#fff" style="fill: var(--color1, #fff)" d="M14.065 5.89l0.144 0.42c0 0 0.916 0.547 2.007 0.325 0.035-0.007 0.069-0.022 0.099-0.042s0.055-0.047 0.075-0.077c0.020-0.030 0.033-0.064 0.039-0.1s0.005-0.072-0.003-0.107l-0.084-0.739c-0.008-0.035-0.023-0.068-0.044-0.097s-0.047-0.054-0.078-0.073-0.064-0.032-0.1-0.038c-0.035-0.006-0.072-0.005-0.107 0.004l-1.95 0.525z"></path>
<path fill="#0f0f0f" style="fill: var(--color2, #0f0f0f)" d="M15.689 6.726c-0.846 0-1.491-0.378-1.499-0.383s-0.014-0.012-0.018-0.020l-0.144-0.42c-0.002-0.005-0.002-0.010-0.002-0.016s0.002-0.010 0.004-0.015c0.002-0.005 0.006-0.009 0.010-0.012s0.009-0.006 0.014-0.007l1.95-0.525c0.040-0.010 0.081-0.011 0.122-0.005s0.079 0.021 0.114 0.043 0.065 0.050 0.089 0.083c0.024 0.033 0.041 0.071 0.050 0.111 0 0.001 0 0.003 0 0.004l0.084 0.737c0.009 0.040 0.010 0.082 0.002 0.122s-0.023 0.079-0.045 0.114c-0.022 0.035-0.052 0.064-0.085 0.087s-0.072 0.039-0.113 0.048c-0.176 0.035-0.355 0.053-0.534 0.053zM14.241 6.284c0.111 0.062 0.971 0.516 1.968 0.314 0.030-0.006 0.059-0.019 0.085-0.036s0.047-0.040 0.064-0.066 0.028-0.055 0.034-0.086c0.005-0.031 0.005-0.062-0.002-0.092-0-0.001-0-0.003 0-0.004l-0.084-0.737c-0.014-0.060-0.052-0.112-0.104-0.144s-0.116-0.043-0.176-0.029l-1.909 0.513 0.124 0.367z"></path>
<path fill="#0f0f0f" style="fill: var(--color2, #0f0f0f)" d="M15.102 6.391c-0.005 0-0.010-0.001-0.015-0.003s-0.009-0.005-0.012-0.008-0.011-0.017-0.011-0.027 0.004-0.020 0.011-0.027l0.349-0.349c0.007-0.006 0.017-0.010 0.027-0.010s0.019 0.004 0.026 0.011c0.007 0.007 0.011 0.016 0.011 0.026s-0.003 0.019-0.010 0.027l-0.35 0.349c-0.007 0.007-0.016 0.011-0.026 0.011z"></path>
<path fill="#0f0f0f" style="fill: var(--color2, #0f0f0f)" d="M15.624 6.323c-0.005 0-0.010-0.001-0.015-0.003s-0.009-0.005-0.013-0.008-0.011-0.017-0.011-0.027c0-0.010 0.004-0.020 0.011-0.027l0.523-0.522c0.007-0.007 0.017-0.011 0.027-0.011s0.020 0.004 0.027 0.011c0.007 0.007 0.011 0.017 0.011 0.027s-0.004 0.020-0.011 0.027l-0.523 0.523c-0.007 0.007-0.017 0.011-0.027 0.010z"></path>
<path fill="#0f0f0f" style="fill: var(--color2, #0f0f0f)" d="M9.157 27.429h-0.001c-1.203-0.032-1.967-0.348-2.272-0.937l-6.601-12.774c-0.002-0.005-0.004-0.009-0.004-0.014s0-0.010 0.002-0.015 0.004-0.009 0.007-0.013c0.003-0.004 0.007-0.007 0.012-0.009s0.009-0.004 0.014-0.004c0.005-0 0.010 0 0.015 0.002s0.009 0.004 0.013 0.007c0.004 0.003 0.007 0.007 0.009 0.012 0.36 0.698 1.437 0.999 3.114 0.871 1.65-0.126 3.766-0.657 6.118-1.535 0.231-0.086 0.485-0.084 0.714 0.004s0.419 0.258 0.532 0.476l5.706 11.043c0.065 0.127 0.103 0.266 0.11 0.408s-0.016 0.285-0.067 0.418c-0.052 0.133-0.132 0.253-0.234 0.353s-0.224 0.177-0.358 0.226c-0.682 0.25-1.353 0.472-1.995 0.663-0.005 0.002-0.010 0.003-0.015 0.002s-0.010-0.002-0.015-0.004c-0.005-0.002-0.009-0.006-0.012-0.010s-0.006-0.009-0.007-0.014-0.002-0.010-0.001-0.015c0.001-0.005 0.002-0.010 0.005-0.015s0.006-0.009 0.010-0.012c0.004-0.003 0.009-0.005 0.014-0.006 0.64-0.19 1.31-0.413 1.99-0.662 0.124-0.045 0.237-0.116 0.331-0.208s0.168-0.203 0.216-0.326c0.048-0.123 0.069-0.254 0.062-0.386s-0.042-0.26-0.102-0.377l-5.706-11.043c-0.104-0.202-0.279-0.358-0.491-0.44s-0.447-0.083-0.66-0.004c-2.783 1.038-5.165 1.568-6.843 1.568-1.026 0-1.788-0.197-2.221-0.597l6.404 12.394c0.287 0.556 1.051 0.866 2.207 0.897 0.010 0.001 0.019 0.005 0.025 0.012s0.010 0.017 0.010 0.026c-0 0.010-0.004 0.019-0.011 0.026s-0.016 0.011-0.026 0.012h-0.001z"></path>
<path fill="#fff" style="fill: var(--color1, #fff)" d="M12.358 27.038c-0.009-0-0.018-0.004-0.025-0.010s-0.011-0.015-0.013-0.024c-0.001-0.009 0.001-0.019 0.007-0.026s0.013-0.013 0.023-0.015c0.516-0.117 1.061-0.26 1.621-0.427 0.009-0.002 0.020-0.001 0.028 0.004s0.015 0.013 0.018 0.022c0.003 0.009 0.002 0.019-0.002 0.028s-0.012 0.015-0.021 0.019c-0.56 0.167-1.108 0.311-1.625 0.428-0.003 0.001-0.006 0.001-0.009 0.001z"></path>
<path fill="#0f0f0f" style="fill: var(--color2, #0f0f0f)" d="M10.33 27.38c-0.010-0-0.019-0.004-0.026-0.011s-0.011-0.016-0.011-0.026c-0.001-0.010 0.003-0.019 0.009-0.027s0.015-0.012 0.025-0.013c0.613-0.061 1.293-0.175 2.023-0.341 0.010-0.002 0.020-0.001 0.029 0.005s0.015 0.014 0.017 0.024c0.002 0.010 0.001 0.020-0.005 0.029s-0.014 0.015-0.024 0.017c-0.733 0.166-1.417 0.282-2.032 0.343l-0.005 0z"></path>
<path fill="#fff" style="fill: var(--color1, #fff)" d="M9.354 27.432c-0.067 0-0.134-0.001-0.199-0.003-0.005 0-0.011-0.001-0.015-0.003s-0.009-0.005-0.013-0.009-0.007-0.008-0.009-0.013c-0.002-0.005-0.003-0.010-0.003-0.015s0.001-0.010 0.004-0.015c0.002-0.005 0.005-0.009 0.009-0.013s0.009-0.006 0.014-0.008c0.005-0.002 0.010-0.002 0.015-0.002 0.39 0.008 0.78-0.009 1.169-0.049 0.010-0 0.019 0.003 0.027 0.009s0.012 0.015 0.013 0.025c0.001 0.010-0.002 0.020-0.008 0.027s-0.015 0.013-0.024 0.015c-0.348 0.034-0.676 0.052-0.98 0.052z"></path>
<path fill="#0f0f0f" style="fill: var(--color2, #0f0f0f)" d="M19.853 24.193c-0.185 0-0.367-0.050-0.525-0.145s-0.288-0.233-0.373-0.397c-0.003-0.005-0.004-0.009-0.005-0.015s-0-0.011 0.001-0.015c0.001-0.005 0.004-0.010 0.007-0.014s0.008-0.007 0.012-0.010c0.005-0.002 0.010-0.004 0.015-0.004s0.011 0 0.015 0.002c0.005 0.002 0.009 0.005 0.013 0.008s0.007 0.008 0.009 0.013c0.113 0.215 0.305 0.378 0.537 0.454s0.483 0.058 0.702-0.048c0.25-0.123 0.503-0.251 0.752-0.379 3.279-1.689 6.172-3.643 8.146-5.503 1.963-1.85 2.78-3.379 2.301-4.305l-6.403-12.393c0.127 0.967-0.721 2.356-2.444 3.98-1.979 1.865-4.878 3.824-8.164 5.516-0.241 0.124-0.485 0.247-0.726 0.366-0.111 0.055-0.209 0.131-0.29 0.224s-0.142 0.201-0.18 0.318c-0.038 0.117-0.053 0.24-0.043 0.363s0.044 0.242 0.101 0.351l1.885 3.649c0.004 0.009 0.004 0.019 0 0.028s-0.010 0.017-0.019 0.021c-0.009 0.004-0.018 0.005-0.028 0.003s-0.017-0.009-0.022-0.017l-1.885-3.649c-0.061-0.118-0.098-0.248-0.109-0.381s0.005-0.266 0.047-0.393c0.042-0.127 0.108-0.244 0.195-0.344s0.194-0.183 0.313-0.242c0.241-0.119 0.485-0.242 0.725-0.366 3.279-1.689 6.172-3.643 8.146-5.503 1.962-1.848 2.779-3.376 2.302-4.303l-0.001-0.002c-0.005-0.009-0.006-0.020-0.002-0.029s0.010-0.018 0.019-0.022c0.009-0.005 0.020-0.006 0.029-0.002s0.018 0.010 0.022 0.019l6.599 12.773c0.496 0.96-0.327 2.521-2.317 4.397-1.979 1.865-4.878 3.824-8.164 5.516-0.249 0.128-0.503 0.256-0.753 0.379-0.137 0.068-0.289 0.103-0.442 0.103z"></path>
<path fill="#fff" style="fill: var(--color1, #fff)" d="M18.988 23.671c-0.007 0-0.014-0.002-0.021-0.005s-0.011-0.009-0.015-0.015l-1.291-2.499c-0.003-0.005-0.005-0.010-0.006-0.015s-0-0.011 0.001-0.016c0.001-0.005 0.004-0.010 0.007-0.014s0.008-0.008 0.012-0.010c0.005-0.002 0.010-0.004 0.015-0.004s0.011 0 0.016 0.002c0.005 0.002 0.010 0.005 0.013 0.008s0.007 0.008 0.009 0.013l1.291 2.499c0.002 0.005 0.004 0.010 0.004 0.015s-0 0.010-0.002 0.015c-0.002 0.005-0.004 0.009-0.008 0.013s-0.008 0.007-0.012 0.009c-0.005 0.002-0.011 0.003-0.016 0.003z"></path>
<path fill="#0f0f0f" style="fill: var(--color2, #0f0f0f)" d="M17.697 21.173c-0.007 0-0.014-0.002-0.020-0.005s-0.011-0.009-0.015-0.015l-0.549-1.063c-0.002-0.005-0.004-0.009-0.004-0.014s0-0.010 0.002-0.015 0.010-0.018 0.019-0.022c0.009-0.005 0.020-0.006 0.029-0.002s0.018 0.010 0.022 0.019l0.549 1.063c0.002 0.005 0.004 0.009 0.004 0.015s-0 0.010-0.002 0.015c-0.002 0.005-0.004 0.009-0.007 0.013s-0.007 0.007-0.012 0.009c-0.005 0.002-0.011 0.004-0.017 0.003z"></path>
<path fill="#fff" style="fill: var(--color1, #fff)" d="M17.148 20.109c-0.007 0-0.014-0.002-0.020-0.005s-0.011-0.009-0.015-0.015l-1.986-3.845c-0.003-0.005-0.005-0.010-0.005-0.015s-0.001-0.011 0.001-0.016c0.001-0.005 0.004-0.010 0.007-0.014s0.008-0.008 0.012-0.010c0.005-0.002 0.010-0.004 0.015-0.004s0.011 0 0.016 0.002c0.005 0.002 0.010 0.005 0.013 0.009s0.007 0.008 0.009 0.013l1.988 3.845c0.002 0.005 0.004 0.010 0.004 0.015s-0 0.010-0.002 0.015-0.004 0.009-0.008 0.013c-0.003 0.004-0.008 0.007-0.012 0.009s-0.011 0.003-0.017 0.003z"></path>
<path fill="#0f0f0f" style="fill: var(--color2, #0f0f0f)" d="M15.185 12.557c-0.009-0-0.017-0.003-0.024-0.008s-0.011-0.013-0.013-0.021c-0.002-0.008-0.001-0.017 0.002-0.025s0.010-0.014 0.017-0.018c5.201-2.679 9.363-6.019 10.358-8.313 0.002-0.005 0.004-0.010 0.008-0.014s0.008-0.007 0.013-0.010c0.005-0.002 0.010-0.004 0.016-0.004s0.011 0.001 0.016 0.003c0.005 0.002 0.009 0.005 0.013 0.009s0.006 0.009 0.008 0.014c0.002 0.005 0.002 0.011 0.002 0.016s-0.002 0.011-0.005 0.015c-1.001 2.308-5.178 5.664-10.394 8.35-0.005 0.003-0.011 0.004-0.017 0.004z"></path>
<path fill="#0f0f0f" style="fill: var(--color2, #0f0f0f)" d="M15.812 13.883c-0.009-0-0.017-0.003-0.024-0.008s-0.011-0.013-0.014-0.021c-0.002-0.008-0.001-0.017 0.002-0.025s0.010-0.014 0.017-0.018c5.201-2.679 9.364-6.019 10.359-8.312 0.005-0.008 0.012-0.015 0.021-0.018s0.019-0.003 0.028 0.001 0.016 0.011 0.020 0.019c0.004 0.009 0.004 0.019 0.001 0.028-1.001 2.308-5.178 5.664-10.394 8.35-0.005 0.003-0.011 0.004-0.017 0.004z"></path>
<path fill="#0f0f0f" style="fill: var(--color2, #0f0f0f)" d="M18.104 14.31c-0.009 0-0.017-0.003-0.023-0.008s-0.012-0.012-0.014-0.021-0.002-0.017 0.002-0.025c0.003-0.008 0.009-0.014 0.016-0.019 1.299-0.734 2.518-1.507 3.626-2.294 0.004-0.003 0.009-0.005 0.014-0.006s0.010-0.001 0.015-0c0.005 0.001 0.010 0.003 0.014 0.005s0.008 0.006 0.011 0.010 0.005 0.009 0.006 0.014c0.001 0.005 0.001 0.010 0 0.015s-0.003 0.010-0.005 0.014c-0.003 0.004-0.006 0.008-0.010 0.011-1.11 0.789-2.331 1.563-3.632 2.298-0.006 0.003-0.012 0.005-0.019 0.005z"></path>
<path fill="#0f0f0f" style="fill: var(--color2, #0f0f0f)" d="M22.629 11.354c-0.008 0-0.016-0.003-0.022-0.007s-0.011-0.011-0.014-0.019c-0.003-0.008-0.003-0.016-0-0.024s0.007-0.014 0.014-0.019c2.159-1.648 3.642-3.232 4.174-4.461 0.005-0.008 0.012-0.014 0.021-0.017s0.019-0.002 0.027 0.001 0.015 0.011 0.020 0.019c0.004 0.008 0.005 0.018 0.002 0.027-0.538 1.24-2.029 2.836-4.199 4.491-0.006 0.005-0.014 0.008-0.023 0.008z"></path>
<path fill="#0f0f0f" style="fill: var(--color2, #0f0f0f)" d="M20.373 14.661c-0.008-0-0.017-0.003-0.023-0.008s-0.012-0.012-0.014-0.020c-0.002-0.008-0.002-0.017 0.001-0.024s0.008-0.014 0.015-0.019c1.29-0.804 2.463-1.63 3.486-2.454 0.004-0.003 0.009-0.006 0.013-0.008s0.010-0.002 0.015-0.002 0.010 0.002 0.015 0.004c0.005 0.002 0.009 0.006 0.012 0.010s0.006 0.009 0.007 0.014c0.001 0.005 0.002 0.010 0.001 0.015s-0.002 0.010-0.005 0.015-0.006 0.008-0.010 0.011c-1.025 0.826-2.201 1.653-3.493 2.459-0.006 0.004-0.013 0.006-0.020 0.006z"></path>
<path fill="#0f0f0f" style="fill: var(--color2, #0f0f0f)" d="M24.565 11.618c-0.008 0-0.015-0.002-0.022-0.007s-0.011-0.011-0.014-0.018c-0.003-0.007-0.003-0.015-0.001-0.023s0.006-0.014 0.012-0.020c1.46-1.266 2.452-2.442 2.868-3.401 0.002-0.005 0.004-0.010 0.008-0.014s0.008-0.007 0.013-0.009c0.005-0.002 0.010-0.003 0.015-0.003s0.011 0.001 0.015 0.003c0.005 0.002 0.009 0.005 0.013 0.009s0.006 0.009 0.008 0.014c0.002 0.005 0.002 0.010 0.002 0.016s-0.002 0.011-0.005 0.015c-0.42 0.97-1.419 2.155-2.888 3.428-0.007 0.006-0.016 0.009-0.025 0.009z"></path>
<path fill="#0f0f0f" style="fill: var(--color2, #0f0f0f)" d="M18.321 19.186c-0.009-0-0.017-0.003-0.024-0.008s-0.011-0.013-0.013-0.021c-0.002-0.008-0.001-0.017 0.002-0.025s0.010-0.014 0.017-0.018c0.237-0.122 0.477-0.248 0.712-0.374 0.009-0.004 0.019-0.005 0.029-0.002s0.017 0.010 0.022 0.018c0.005 0.009 0.006 0.019 0.003 0.028s-0.009 0.018-0.017 0.023c-0.236 0.126-0.476 0.253-0.714 0.375-0.005 0.003-0.012 0.004-0.018 0.004z"></path>
<path fill="#fff" style="fill: var(--color1, #fff)" d="M19.034 18.811c-0.009-0-0.017-0.003-0.024-0.008s-0.011-0.013-0.013-0.021c-0.002-0.008-0.001-0.017 0.002-0.025s0.010-0.014 0.017-0.018c0.756-0.405 1.499-0.83 2.209-1.262 0.004-0.003 0.009-0.005 0.014-0.006s0.010-0.001 0.015 0 0.010 0.003 0.014 0.006c0.004 0.003 0.008 0.007 0.011 0.011s0.005 0.009 0.005 0.015c0.001 0.005 0 0.011-0.001 0.015s-0.004 0.010-0.007 0.014c-0.003 0.004-0.007 0.008-0.012 0.010-0.711 0.433-1.455 0.858-2.213 1.264-0.006 0.003-0.012 0.005-0.019 0.005z"></path>
<path fill="#0f0f0f" style="fill: var(--color2, #0f0f0f)" d="M21.245 17.548c-0.008 0-0.017-0.003-0.023-0.008s-0.011-0.012-0.014-0.020c-0.002-0.008-0.002-0.017 0.001-0.024s0.009-0.014 0.016-0.019c1.892-1.152 3.579-2.379 4.878-3.547 1.29-1.16 2.175-2.242 2.559-3.128 0.002-0.005 0.004-0.010 0.008-0.014s0.008-0.008 0.013-0.010c0.005-0.002 0.010-0.004 0.016-0.004s0.011 0.001 0.016 0.003c0.005 0.002 0.009 0.005 0.013 0.009s0.006 0.009 0.008 0.014c0.002 0.005 0.002 0.011 0.002 0.016s-0.002 0.011-0.005 0.015c-0.798 1.84-3.591 4.349-7.468 6.711-0.006 0.003-0.012 0.005-0.019 0.006z"></path>
<path fill="#fff" style="fill: var(--color1, #fff)" d="M18.949 20.511c-0.009-0-0.017-0.003-0.024-0.008s-0.012-0.013-0.014-0.021c-0.002-0.008-0.001-0.017 0.002-0.025s0.010-0.014 0.017-0.018c0.82-0.422 1.629-0.868 2.401-1.325 0.009-0.005 0.019-0.007 0.029-0.004s0.018 0.009 0.023 0.018c0.005 0.009 0.007 0.019 0.004 0.029s-0.009 0.018-0.018 0.023c-0.774 0.457-1.584 0.904-2.405 1.327-0.006 0.003-0.012 0.004-0.018 0.004z"></path>
<path fill="#0f0f0f" style="fill: var(--color2, #0f0f0f)" d="M21.351 19.186c-0.008-0-0.017-0.003-0.023-0.008s-0.012-0.012-0.014-0.020c-0.002-0.008-0.002-0.017 0.001-0.025s0.009-0.014 0.016-0.019c4.085-2.413 7.134-5.090 7.957-6.988 0.005-0.008 0.012-0.015 0.021-0.018s0.019-0.003 0.028 0.001 0.016 0.011 0.020 0.020c0.004 0.009 0.004 0.019 0.001 0.028-0.829 1.912-3.891 4.603-7.989 7.023-0.006 0.003-0.012 0.005-0.019 0.005z"></path>
<path fill="#0f0f0f" style="fill: var(--color2, #0f0f0f)" d="M19.576 21.837c-0.009-0-0.017-0.003-0.024-0.008s-0.011-0.013-0.013-0.021c-0.002-0.008-0.001-0.017 0.002-0.025s0.010-0.014 0.017-0.018c0.48-0.247 0.958-0.504 1.423-0.763 0.009-0.005 0.019-0.006 0.029-0.003s0.018 0.009 0.023 0.018c0.005 0.009 0.006 0.019 0.003 0.029s-0.009 0.018-0.018 0.023c-0.465 0.26-0.945 0.517-1.425 0.764-0.005 0.003-0.012 0.004-0.018 0.004z"></path>
<path fill="#0f0f0f" style="fill: var(--color2, #0f0f0f)" d="M21 21.074c-0.009 0-0.017-0.003-0.024-0.008s-0.012-0.012-0.014-0.021-0.002-0.017 0.002-0.025c0.003-0.008 0.009-0.014 0.017-0.018 4.537-2.532 8.045-5.496 8.936-7.549 0.002-0.005 0.004-0.010 0.008-0.014s0.008-0.007 0.013-0.010 0.010-0.004 0.016-0.004c0.005-0 0.011 0.001 0.016 0.003s0.009 0.005 0.013 0.009c0.004 0.004 0.006 0.009 0.008 0.014s0.002 0.011 0.002 0.016c-0.001 0.005-0.002 0.011-0.005 0.015-0.438 1.013-1.503 2.255-3.077 3.59-1.592 1.351-3.629 2.733-5.891 3.996-0.006 0.003-0.012 0.005-0.019 0.005z"></path>
<path fill="#0f0f0f" style="fill: var(--color2, #0f0f0f)" d="M24.074 24.761c-0.008 0-0.017-0.003-0.023-0.008s-0.012-0.012-0.014-0.020c-0.002-0.008-0.002-0.017 0.001-0.024s0.009-0.014 0.016-0.019c0.132-0.080 0.263-0.16 0.393-0.24 0.009-0.005 0.019-0.007 0.029-0.005 0.005 0.001 0.009 0.003 0.014 0.006s0.008 0.007 0.010 0.011c0.003 0.004 0.004 0.009 0.005 0.014s0.001 0.010-0 0.015c-0.001 0.005-0.003 0.009-0.006 0.014s-0.007 0.008-0.011 0.010c-0.13 0.080-0.261 0.161-0.393 0.241-0.006 0.004-0.013 0.006-0.020 0.006zM24.858 24.275c-0.008-0-0.016-0.003-0.022-0.008s-0.011-0.012-0.013-0.019c-0.002-0.008-0.002-0.016 0.001-0.024s0.008-0.014 0.014-0.019c0.131-0.083 0.26-0.165 0.388-0.248 0.004-0.003 0.009-0.005 0.014-0.007s0.011-0.001 0.016-0c0.005 0.001 0.010 0.003 0.015 0.006s0.008 0.007 0.011 0.011c0.003 0.004 0.005 0.009 0.006 0.015s0.001 0.011-0.001 0.016-0.004 0.010-0.007 0.014c-0.003 0.004-0.007 0.008-0.012 0.010-0.128 0.083-0.258 0.166-0.389 0.248-0.006 0.003-0.013 0.005-0.020 0.005v0zM25.633 23.775c-0.008-0-0.016-0.003-0.023-0.008s-0.011-0.012-0.014-0.020-0.002-0.016 0-0.024c0.003-0.008 0.008-0.014 0.014-0.019 0.129-0.085 0.257-0.171 0.383-0.256 0.008-0.005 0.018-0.007 0.028-0.005s0.018 0.008 0.024 0.016c0.006 0.008 0.008 0.018 0.006 0.028s-0.007 0.018-0.015 0.024c-0.126 0.085-0.254 0.171-0.383 0.256-0.006 0.004-0.014 0.006-0.021 0.006v0zM26.396 23.258c-0.008-0-0.016-0.003-0.023-0.008s-0.011-0.012-0.014-0.019c-0.002-0.008-0.002-0.016 0-0.024s0.008-0.014 0.014-0.019c0.126-0.087 0.253-0.176 0.377-0.265 0.004-0.003 0.009-0.006 0.014-0.007s0.010-0.002 0.015-0.001c0.005 0.001 0.010 0.003 0.015 0.005s0.008 0.006 0.011 0.011 0.005 0.009 0.006 0.014c0.001 0.005 0.001 0.010 0 0.015s-0.003 0.010-0.006 0.014c-0.003 0.004-0.007 0.008-0.011 0.011-0.124 0.087-0.252 0.178-0.378 0.265-0.007 0.004-0.015 0.007-0.022 0.006l0 0zM27.149 22.724c-0.008 0-0.016-0.002-0.023-0.007s-0.012-0.012-0.014-0.019c-0.003-0.008-0.003-0.016 0-0.024s0.008-0.015 0.014-0.019c0.125-0.091 0.25-0.184 0.37-0.274 0.008-0.006 0.018-0.009 0.029-0.007s0.019 0.007 0.025 0.015c0.006 0.008 0.009 0.018 0.007 0.028s-0.007 0.019-0.015 0.025c-0.121 0.091-0.245 0.183-0.371 0.275-0.006 0.005-0.014 0.008-0.022 0.008l-0.001 0z"></path>
<path fill="#fff" style="fill: var(--color1, #fff)" d="M27.519 22.449c-0.008 0-0.017-0.002-0.023-0.007s-0.012-0.012-0.015-0.019c-0.003-0.008-0.003-0.017 0-0.024s0.008-0.015 0.015-0.019l0.009-0.007c0.004-0.003 0.009-0.005 0.014-0.006s0.010-0.001 0.015-0.001 0.010 0.003 0.014 0.005c0.004 0.003 0.008 0.006 0.011 0.010s0.005 0.009 0.006 0.014c0.001 0.005 0.001 0.010 0.001 0.015s-0.003 0.010-0.005 0.014c-0.003 0.004-0.006 0.008-0.010 0.011l-0.009 0.007c-0.007 0.005-0.015 0.007-0.023 0.007zM27.896 22.163c-0.008 0-0.016-0.003-0.022-0.007s-0.012-0.011-0.014-0.019c-0.003-0.008-0.003-0.016-0-0.023s0.007-0.015 0.013-0.019c0.123-0.094 0.244-0.19 0.363-0.284 0.008-0.006 0.018-0.009 0.028-0.007s0.019 0.006 0.025 0.014c0.006 0.008 0.009 0.018 0.008 0.028s-0.006 0.019-0.013 0.026c-0.119 0.095-0.241 0.191-0.363 0.285-0.007 0.005-0.015 0.008-0.023 0.008z"></path>
<path fill="#0f0f0f" style="fill: var(--color2, #0f0f0f)" d="M28.557 21.637c-0.008 0-0.016-0.002-0.022-0.007s-0.011-0.011-0.014-0.018c-0.003-0.007-0.003-0.016-0.001-0.023s0.007-0.014 0.013-0.019c0.121-0.099 0.24-0.198 0.354-0.295 0.004-0.003 0.008-0.006 0.013-0.007s0.010-0.002 0.015-0.002 0.010 0.002 0.014 0.004c0.005 0.002 0.009 0.006 0.012 0.009s0.006 0.008 0.007 0.013c0.001 0.005 0.002 0.010 0.002 0.015s-0.002 0.010-0.004 0.014c-0.002 0.005-0.006 0.008-0.009 0.012-0.114 0.097-0.234 0.196-0.355 0.296-0.007 0.005-0.015 0.008-0.024 0.008z"></path>
<path fill="#fff" style="fill: var(--color1, #fff)" d="M29.222 21.074c-0.005 0-0.011-0.001-0.016-0.003s-0.009-0.006-0.013-0.010c-0.003-0.004-0.006-0.008-0.008-0.013s-0.002-0.010-0.002-0.015c0-0.005 0.002-0.010 0.004-0.015s0.005-0.009 0.009-0.012c0.117-0.102 0.232-0.206 0.343-0.307 0.004-0.003 0.008-0.006 0.013-0.008s0.010-0.003 0.015-0.002c0.005 0 0.010 0.001 0.015 0.003s0.009 0.005 0.012 0.009c0.003 0.004 0.006 0.008 0.008 0.013s0.003 0.010 0.002 0.015c-0 0.005-0.001 0.010-0.003 0.015s-0.005 0.009-0.009 0.012c-0.111 0.102-0.228 0.205-0.344 0.308-0.007 0.006-0.017 0.010-0.026 0.010z"></path>
<path fill="#0f0f0f" style="fill: var(--color2, #0f0f0f)" d="M29.566 20.766c-0.005 0-0.011-0.001-0.015-0.003s-0.009-0.005-0.013-0.009c-0.003-0.004-0.006-0.008-0.008-0.013s-0.003-0.010-0.002-0.015c0-0.005 0.001-0.010 0.004-0.015s0.005-0.009 0.009-0.012c0.075-0.069 0.149-0.137 0.222-0.205 0.008-0.006 0.017-0.009 0.027-0.008s0.019 0.005 0.025 0.012c0.007 0.007 0.010 0.016 0.010 0.026s-0.003 0.019-0.010 0.026c-0.073 0.068-0.147 0.137-0.222 0.206-0.007 0.006-0.016 0.010-0.026 0.010zM30.12 20.241c-0.005 0-0.010-0.001-0.015-0.003s-0.009-0.005-0.012-0.008-0.011-0.017-0.011-0.027 0.004-0.020 0.011-0.027c0.111-0.109 0.219-0.219 0.323-0.327 0.007-0.006 0.017-0.010 0.026-0.010s0.019 0.004 0.026 0.011c0.007 0.007 0.011 0.016 0.012 0.025s-0.002 0.019-0.008 0.027c-0.105 0.109-0.213 0.219-0.325 0.329-0.004 0.004-0.008 0.006-0.012 0.009s-0.010 0.003-0.015 0.003h0.001zM30.759 19.575c-0.007 0-0.015-0.002-0.021-0.006s-0.011-0.010-0.014-0.017c-0.003-0.007-0.004-0.014-0.003-0.022s0.004-0.014 0.009-0.020c0.105-0.116 0.206-0.233 0.302-0.347 0.007-0.007 0.016-0.012 0.026-0.012s0.020 0.003 0.027 0.009c0.008 0.006 0.012 0.015 0.014 0.025s-0.002 0.020-0.008 0.028c-0.096 0.115-0.198 0.232-0.304 0.35-0.004 0.004-0.008 0.007-0.014 0.009s-0.011 0.003-0.016 0.003h0.001zM31.35 18.868c-0.008 0-0.017-0.003-0.023-0.008-0.008-0.006-0.013-0.015-0.015-0.025s0.001-0.020 0.008-0.028c0.096-0.125 0.187-0.25 0.27-0.371 0.006-0.008 0.015-0.013 0.025-0.015s0.020 0.001 0.028 0.006c0.008 0.006 0.014 0.014 0.016 0.024s0 0.020-0.005 0.028c-0.084 0.122-0.175 0.248-0.272 0.374-0.004 0.005-0.008 0.009-0.014 0.011s-0.011 0.004-0.017 0.004l0-0zM31.87 18.107c-0.007 0-0.014-0.002-0.019-0.005s-0.011-0.008-0.014-0.014c-0.003-0.006-0.005-0.013-0.005-0.019s0.002-0.013 0.006-0.019c0.081-0.137 0.154-0.272 0.218-0.402 0.004-0.009 0.012-0.016 0.022-0.020s0.020-0.003 0.030 0.002c0.009 0.004 0.016 0.012 0.020 0.022s0.003 0.020-0.002 0.030c-0.064 0.132-0.139 0.27-0.221 0.408-0.003 0.006-0.009 0.011-0.015 0.014s-0.013 0.005-0.020 0.005h0.001z"></path>
<path fill="#0f0f0f" style="fill: var(--color2, #0f0f0f)" d="M3.954 31.83c-0.127 0-0.252-0.002-0.373-0.006-0.010-0.001-0.019-0.005-0.025-0.013s-0.010-0.017-0.010-0.027c0-0.010 0.004-0.019 0.011-0.026s0.016-0.011 0.026-0.011c0.148 0.005 0.303 0.007 0.46 0.006 0.005-0 0.011 0 0.016 0.002s0.010 0.005 0.013 0.008c0.004 0.004 0.007 0.008 0.009 0.013s0.003 0.010 0.003 0.015c0 0.005-0.001 0.011-0.003 0.015s-0.005 0.009-0.009 0.013c-0.004 0.004-0.008 0.006-0.013 0.008s-0.010 0.003-0.016 0.002l-0.089 0zM4.505 31.818c-0.010-0-0.019-0.005-0.026-0.012s-0.011-0.016-0.011-0.026c-0-0.010 0.003-0.019 0.010-0.027s0.016-0.012 0.025-0.013c0.149-0.006 0.304-0.015 0.46-0.026 0.005-0.001 0.011-0 0.016 0.001s0.010 0.004 0.014 0.007c0.004 0.003 0.007 0.007 0.010 0.012s0.004 0.010 0.004 0.015c0 0.005-0 0.011-0.002 0.015s-0.004 0.009-0.008 0.013c-0.004 0.004-0.008 0.007-0.013 0.009s-0.010 0.003-0.015 0.003c-0.157 0.011-0.312 0.020-0.462 0.027h-0.002zM3.121 31.797h-0.003c-0.159-0.013-0.314-0.031-0.461-0.052-0.005-0.001-0.010-0.002-0.015-0.005s-0.009-0.006-0.012-0.010c-0.003-0.004-0.006-0.009-0.007-0.014s-0.002-0.010-0.001-0.015 0.003-0.010 0.005-0.015c0.003-0.004 0.006-0.008 0.011-0.011s0.009-0.005 0.014-0.006c0.005-0.001 0.010-0.001 0.015-0 0.145 0.021 0.298 0.038 0.455 0.051 0.010 0 0.020 0.005 0.027 0.012s0.011 0.017 0.010 0.027c-0 0.010-0.005 0.020-0.012 0.027s-0.017 0.011-0.028 0.010l0.001 0.001zM5.425 31.752c-0.010-0-0.019-0.004-0.026-0.011s-0.011-0.016-0.011-0.026c-0-0.010 0.003-0.019 0.009-0.027s0.015-0.012 0.025-0.013c0.149-0.015 0.303-0.032 0.458-0.051 0.010-0.001 0.020 0.003 0.027 0.009s0.013 0.015 0.014 0.025c0.001 0.010-0.001 0.020-0.007 0.027s-0.014 0.013-0.024 0.015c-0.156 0.019-0.31 0.036-0.46 0.051l-0.004 0zM2.209 31.663c-0.003 0-0.006 0-0.008 0-0.151-0.034-0.301-0.075-0.448-0.124-0.005-0.002-0.009-0.004-0.013-0.007s-0.007-0.007-0.009-0.012-0.004-0.009-0.004-0.014c-0-0.005 0-0.010 0.002-0.015s0.004-0.009 0.007-0.013c0.003-0.004 0.007-0.007 0.012-0.009s0.009-0.004 0.014-0.004c0.005-0 0.010 0 0.015 0.002 0.145 0.048 0.292 0.089 0.441 0.122 0.009 0.002 0.017 0.008 0.023 0.015s0.008 0.017 0.007 0.026c-0.001 0.009-0.005 0.018-0.012 0.024s-0.016 0.010-0.025 0.010v-0.002zM6.342 31.64c-0.010-0-0.019-0.004-0.026-0.011s-0.011-0.016-0.012-0.025c-0.001-0.009 0.002-0.019 0.008-0.027s0.014-0.013 0.024-0.014c0.149-0.021 0.303-0.045 0.455-0.070 0.005-0.001 0.010-0.001 0.015 0.001s0.010 0.003 0.014 0.006c0.004 0.003 0.008 0.007 0.010 0.011s0.004 0.009 0.005 0.014c0.001 0.005 0.001 0.010-0 0.015s-0.003 0.010-0.006 0.014c-0.003 0.004-0.007 0.008-0.011 0.010s-0.009 0.004-0.014 0.005c-0.154 0.025-0.307 0.049-0.457 0.070-0.002 0-0.004 0.001-0.006 0.001h0zM7.253 31.492c-0.010 0-0.019-0.003-0.026-0.010s-0.012-0.015-0.013-0.025 0.002-0.019 0.008-0.027c0.006-0.008 0.014-0.013 0.024-0.014 0.149-0.027 0.301-0.056 0.453-0.086 0.010-0.001 0.020 0.001 0.028 0.007s0.014 0.014 0.015 0.024c0.002 0.010 0 0.020-0.005 0.028s-0.013 0.014-0.023 0.017c-0.152 0.030-0.305 0.059-0.454 0.086l-0.007 0zM1.338 31.365c-0.006 0-0.012-0.001-0.018-0.004-0.14-0.069-0.273-0.152-0.397-0.247-0.004-0.003-0.007-0.007-0.010-0.011s-0.004-0.009-0.005-0.014c-0.001-0.005-0-0.010 0.001-0.015s0.004-0.009 0.007-0.013c0.003-0.004 0.007-0.007 0.011-0.010s0.009-0.004 0.014-0.005 0.010-0 0.015 0.001c0.005 0.001 0.009 0.004 0.013 0.007 0.12 0.092 0.249 0.172 0.385 0.239 0.008 0.004 0.014 0.010 0.018 0.018s0.004 0.017 0.002 0.025c-0.002 0.008-0.007 0.016-0.014 0.021s-0.015 0.008-0.024 0.008h-0zM8.159 31.313c-0.010 0-0.019-0.003-0.026-0.010s-0.012-0.015-0.013-0.025c-0.001-0.009 0.002-0.019 0.007-0.027s0.014-0.013 0.024-0.015c0.148-0.031 0.299-0.065 0.45-0.099 0.005-0.001 0.010-0.002 0.015-0.001s0.010 0.002 0.015 0.005 0.008 0.006 0.011 0.010c0.003 0.004 0.005 0.009 0.007 0.014s0.001 0.010 0 0.015c-0.001 0.005-0.003 0.010-0.006 0.014s-0.007 0.008-0.011 0.011c-0.004 0.003-0.009 0.005-0.014 0.006-0.151 0.035-0.303 0.068-0.451 0.1-0.003 0.001-0.006 0.001-0.008 0.001v-0zM9.059 31.108c-0.009-0-0.018-0.004-0.025-0.010s-0.011-0.015-0.012-0.024c-0.001-0.009 0.001-0.019 0.006-0.026s0.013-0.013 0.022-0.016c0.147-0.035 0.298-0.073 0.447-0.111 0.005-0.001 0.010-0.002 0.015-0.001s0.010 0.002 0.014 0.005c0.004 0.003 0.008 0.006 0.011 0.010s0.005 0.009 0.007 0.013c0.001 0.005 0.002 0.010 0.001 0.015s-0.002 0.010-0.005 0.014c-0.003 0.004-0.006 0.008-0.010 0.011s-0.009 0.005-0.014 0.006c-0.15 0.038-0.301 0.076-0.448 0.112-0.003 0.001-0.006 0.001-0.009 0.001zM9.953 30.881c-0.009-0-0.018-0.003-0.025-0.010s-0.011-0.015-0.013-0.024 0.001-0.019 0.006-0.026c0.005-0.008 0.013-0.013 0.022-0.016 0.147-0.039 0.296-0.080 0.445-0.122 0.010-0.002 0.020-0.001 0.028 0.004s0.015 0.013 0.017 0.023c0.003 0.009 0.002 0.020-0.003 0.028s-0.012 0.015-0.022 0.018c-0.149 0.042-0.298 0.083-0.446 0.122-0.003 0.001-0.007 0.001-0.010 0.002zM0.623 30.798c-0.006 0-0.012-0.001-0.017-0.004s-0.010-0.006-0.014-0.011c-0.065-0.086-0.121-0.179-0.166-0.277-0.021-0.045-0.040-0.091-0.056-0.138-0.003-0.009-0.002-0.020 0.003-0.029s0.012-0.016 0.022-0.019c0.009-0.003 0.020-0.003 0.029 0.001s0.016 0.012 0.020 0.021c0.016 0.044 0.033 0.088 0.053 0.131 0.043 0.093 0.096 0.181 0.158 0.262 0.004 0.006 0.007 0.012 0.008 0.020s-0.001 0.014-0.004 0.021c-0.003 0.006-0.008 0.012-0.014 0.015s-0.013 0.006-0.020 0.006l0.001 0zM10.842 30.631c-0.009 0-0.018-0.003-0.025-0.009s-0.012-0.015-0.013-0.024 0.001-0.019 0.006-0.026c0.005-0.008 0.013-0.013 0.022-0.016 0.146-0.043 0.294-0.087 0.442-0.131 0.005-0.001 0.010-0.002 0.015-0.001s0.010 0.002 0.014 0.004c0.004 0.002 0.008 0.006 0.012 0.009s0.006 0.008 0.007 0.013 0.002 0.010 0.001 0.015c-0.001 0.005-0.002 0.010-0.004 0.014s-0.006 0.008-0.009 0.012c-0.004 0.003-0.008 0.006-0.013 0.007-0.148 0.045-0.296 0.089-0.443 0.132-0.004 0.001-0.007 0.002-0.011 0.002zM11.725 30.363c-0.009-0-0.018-0.003-0.025-0.009s-0.011-0.014-0.013-0.023c-0.001-0.009 0.001-0.018 0.005-0.026s0.012-0.014 0.021-0.016c0.146-0.046 0.292-0.093 0.439-0.14 0.010-0.003 0.020-0.001 0.029 0.003s0.015 0.013 0.018 0.022c0.003 0.009 0.002 0.020-0.002 0.029s-0.012 0.016-0.021 0.019c-0.147 0.048-0.294 0.095-0.44 0.14-0.004 0.001-0.008 0.002-0.012 0.002zM12.604 30.078c-0.009-0-0.018-0.003-0.025-0.009s-0.011-0.014-0.013-0.023 0-0.018 0.005-0.026c0.005-0.008 0.012-0.014 0.021-0.017 0.145-0.049 0.29-0.098 0.437-0.149 0.010-0.003 0.020-0.003 0.029 0.002s0.016 0.012 0.020 0.022c0.003 0.010 0.003 0.020-0.002 0.029s-0.012 0.016-0.022 0.020c-0.146 0.050-0.292 0.1-0.438 0.149-0.004 0.001-0.008 0.002-0.012 0.002zM0.319 29.942c-0.010 0-0.020-0.004-0.027-0.011s-0.012-0.016-0.012-0.026c-0.002-0.031-0.002-0.063-0.002-0.094 0-0.125 0.012-0.25 0.033-0.372 0.001-0.005 0.002-0.010 0.005-0.015s0.006-0.008 0.010-0.012c0.004-0.003 0.009-0.005 0.014-0.007s0.010-0.001 0.016-0c0.005 0.001 0.010 0.003 0.014 0.006s0.008 0.007 0.011 0.011c0.003 0.004 0.005 0.009 0.006 0.014s0.001 0.010-0 0.015c-0.021 0.119-0.032 0.239-0.032 0.359 0 0.030 0.001 0.061 0.002 0.091 0 0.005-0 0.010-0.002 0.015s-0.004 0.009-0.008 0.013c-0.003 0.004-0.007 0.007-0.012 0.009s-0.010 0.003-0.015 0.004l-0.002 0zM0.466 29.038c-0.004 0-0.008-0.001-0.012-0.002-0.010-0.003-0.018-0.010-0.022-0.019s-0.005-0.020-0.002-0.029c0.051-0.146 0.11-0.29 0.177-0.43 0.002-0.005 0.005-0.009 0.009-0.012s0.008-0.006 0.013-0.008 0.010-0.003 0.015-0.002c0.005 0 0.010 0.001 0.015 0.004s0.009 0.005 0.012 0.009c0.003 0.004 0.006 0.008 0.008 0.013s0.002 0.010 0.002 0.015c-0 0.005-0.001 0.010-0.004 0.015-0.066 0.137-0.124 0.278-0.174 0.422-0.003 0.008-0.008 0.014-0.014 0.019s-0.015 0.007-0.023 0.007zM0.858 28.205c-0.007 0-0.014-0.002-0.019-0.005-0.004-0.003-0.008-0.006-0.011-0.010s-0.005-0.009-0.007-0.013c-0.001-0.005-0.002-0.010-0.001-0.015s0.002-0.010 0.005-0.014c0.075-0.127 0.158-0.259 0.248-0.391 0.006-0.008 0.015-0.014 0.025-0.016s0.020 0 0.028 0.006 0.014 0.014 0.016 0.024c0.002 0.010 0 0.020-0.005 0.029-0.089 0.131-0.172 0.261-0.245 0.387-0.003 0.006-0.008 0.011-0.014 0.014s-0.013 0.005-0.019 0.005zM1.375 27.443c-0.008 0-0.016-0.003-0.023-0.008-0.004-0.003-0.007-0.007-0.010-0.011s-0.004-0.009-0.005-0.014c-0.001-0.005-0-0.010 0.001-0.015s0.004-0.009 0.007-0.014c0.090-0.119 0.187-0.24 0.288-0.362 0.007-0.007 0.016-0.012 0.026-0.012s0.020 0.003 0.027 0.009c0.008 0.006 0.012 0.015 0.014 0.025s-0.002 0.020-0.008 0.028c-0.101 0.121-0.197 0.241-0.287 0.359-0.004 0.005-0.008 0.009-0.013 0.011s-0.011 0.004-0.017 0.004l-0-0.001zM1.965 26.733c-0.007 0-0.015-0.002-0.021-0.006s-0.011-0.010-0.014-0.017c-0.003-0.007-0.004-0.014-0.003-0.022s0.004-0.014 0.009-0.020c0.1-0.111 0.206-0.226 0.314-0.339 0.007-0.006 0.016-0.009 0.026-0.009s0.018 0.004 0.025 0.011 0.011 0.015 0.012 0.025c0.001 0.009-0.002 0.019-0.008 0.026-0.108 0.113-0.213 0.227-0.313 0.337-0.003 0.004-0.008 0.008-0.013 0.010s-0.010 0.004-0.016 0.004l-0-0.001zM2.601 26.066c-0.008 0-0.015-0.002-0.021-0.006s-0.011-0.010-0.014-0.017c-0.003-0.007-0.004-0.015-0.002-0.022s0.005-0.014 0.011-0.020c0.107-0.105 0.219-0.214 0.333-0.321 0.004-0.004 0.008-0.007 0.013-0.010s0.010-0.003 0.016-0.004c0.005-0 0.011 0.001 0.016 0.003s0.009 0.005 0.013 0.009c0.004 0.004 0.006 0.009 0.008 0.014s0.002 0.010 0.002 0.016c-0 0.005-0.002 0.011-0.005 0.015s-0.006 0.009-0.010 0.012c-0.113 0.107-0.225 0.214-0.331 0.32-0.003 0.004-0.008 0.006-0.012 0.009s-0.010 0.003-0.015 0.003l-0-0.001zM3.272 25.433c-0.008 0-0.015-0.002-0.022-0.007s-0.011-0.011-0.014-0.018c-0.003-0.007-0.003-0.015-0.002-0.023s0.006-0.014 0.012-0.020c0.112-0.101 0.228-0.204 0.346-0.306 0.004-0.004 0.008-0.006 0.013-0.008s0.010-0.003 0.015-0.002c0.005 0 0.010 0.002 0.015 0.004s0.009 0.005 0.012 0.009 0.006 0.009 0.008 0.013c0.002 0.005 0.002 0.010 0.002 0.015s-0.002 0.010-0.005 0.015c-0.002 0.005-0.006 0.009-0.010 0.012-0.117 0.101-0.233 0.204-0.345 0.305-0.007 0.007-0.016 0.010-0.025 0.011l-0-0zM3.969 24.828c-0.008 0-0.016-0.002-0.022-0.007s-0.011-0.011-0.014-0.018c-0.003-0.007-0.003-0.015-0.001-0.023s0.006-0.014 0.012-0.020c0.071-0.060 0.144-0.119 0.217-0.179 0.004-0.004 0.008-0.006 0.013-0.008s0.010-0.003 0.016-0.002c0.005 0 0.010 0.002 0.015 0.004s0.009 0.006 0.012 0.010 0.006 0.009 0.007 0.014c0.001 0.005 0.002 0.010 0.001 0.016s-0.002 0.010-0.005 0.015c-0.003 0.005-0.006 0.008-0.011 0.012-0.073 0.060-0.145 0.119-0.216 0.179-0.007 0.006-0.015 0.009-0.024 0.009l-0-0.001z"></path>
<path fill="#0f0f0f" style="fill: var(--color2, #0f0f0f)" d="M7.473 2.721c-0.319-0.558-1.021-0.744-1.555-0.405-0.521 0.33-0.678 1.024-0.357 1.566 0.145 0.25 0.381 0.435 0.659 0.517 0.207 0.060 0.382 0.198 0.488 0.385l0.064 0.112c0.012 0.022 0.028 0.041 0.048 0.056s0.042 0.027 0.066 0.033c0.024 0.007 0.049 0.008 0.074 0.005s0.048-0.011 0.070-0.024l0.653-0.389c0.043-0.027 0.074-0.069 0.087-0.119s0.005-0.101-0.021-0.145l-0.064-0.111c-0.108-0.186-0.14-0.406-0.090-0.614 0.073-0.294 0.029-0.604-0.122-0.866z"></path>
<path fill="#fff" style="fill: var(--color1, #fff)" d="M7.746 5.449c-0.223 0.133-0.51 0.053-0.642-0.177l-0.155-0.271 0.807-0.481 0.155 0.271c0.132 0.23 0.059 0.525-0.165 0.658z"></path>
<path fill="#0f0f0f" style="fill: var(--color2, #0f0f0f)" d="M7.514 5.552c-0.043-0-0.085-0.006-0.127-0.016-0.067-0.018-0.129-0.048-0.183-0.090s-0.1-0.095-0.133-0.154l-0.155-0.271c-0.005-0.009-0.007-0.019-0.004-0.029s0.009-0.018 0.018-0.023l0.807-0.481c0.004-0.003 0.009-0.004 0.014-0.005s0.010-0 0.015 0.001c0.005 0.001 0.009 0.004 0.013 0.007s0.007 0.007 0.010 0.011l0.155 0.271c0.142 0.248 0.062 0.567-0.178 0.71-0.076 0.046-0.163 0.071-0.252 0.071zM7.002 5.015l0.136 0.238c0.029 0.051 0.067 0.096 0.113 0.131s0.099 0.062 0.156 0.077c0.054 0.014 0.11 0.018 0.165 0.010s0.108-0.026 0.155-0.055c0.205-0.122 0.272-0.394 0.151-0.606l-0.136-0.237-0.74 0.442z"></path>
<path fill="#0f0f0f" style="fill: var(--color2, #0f0f0f)" d="M5.55 1.612c-0.007 0-0.013-0.002-0.019-0.005s-0.011-0.008-0.014-0.014l-0.566-0.985c-0.005-0.009-0.005-0.019-0.003-0.028s0.009-0.017 0.018-0.022c0.009-0.005 0.019-0.006 0.028-0.004s0.018 0.008 0.023 0.017l0.566 0.985c0.005 0.009 0.006 0.019 0.004 0.029s-0.009 0.018-0.018 0.023c-0.006 0.003-0.012 0.005-0.019 0.005z"></path>
<path fill="#0f0f0f" style="fill: var(--color2, #0f0f0f)" d="M3.683 5.266c-0.009 0-0.017-0.003-0.024-0.008s-0.012-0.012-0.014-0.021c-0.002-0.008-0.002-0.017 0.002-0.025s0.009-0.014 0.016-0.019l1.286-0.734c0.009-0.005 0.019-0.005 0.029-0.003s0.018 0.009 0.022 0.018c0.005 0.009 0.006 0.019 0.004 0.028s-0.008 0.018-0.017 0.023l-1.286 0.734c-0.006 0.003-0.012 0.005-0.019 0.005z"></path>
<path fill="#0f0f0f" style="fill: var(--color2, #0f0f0f)" d="M8.281 2.673c-0.008-0-0.017-0.003-0.023-0.008s-0.011-0.012-0.014-0.021c-0.002-0.008-0.002-0.017 0.002-0.025s0.009-0.014 0.016-0.018l1.33-0.74c0.009-0.004 0.019-0.005 0.029-0.002s0.018 0.009 0.022 0.018 0.006 0.019 0.004 0.028c-0.003 0.010-0.009 0.018-0.017 0.023l-1.33 0.74c-0.006 0.003-0.012 0.005-0.019 0.005z"></path>
<path fill="#0f0f0f" style="fill: var(--color2, #0f0f0f)" d="M4.596 3.020c-0.003-0-0.007-0.001-0.010-0.002l-1.251-0.352c-0.005-0.001-0.009-0.004-0.013-0.007s-0.007-0.007-0.010-0.011c-0.002-0.004-0.004-0.009-0.005-0.014s-0-0.010 0.001-0.015c0.001-0.005 0.004-0.009 0.007-0.013s0.007-0.007 0.011-0.010c0.004-0.002 0.009-0.004 0.014-0.005s0.010-0 0.015 0.001l1.251 0.352c0.009 0.003 0.016 0.008 0.021 0.016s0.007 0.017 0.006 0.026c-0.001 0.009-0.006 0.018-0.013 0.024s-0.016 0.010-0.025 0.010h-0z"></path>
<path fill="#0f0f0f" style="fill: var(--color2, #0f0f0f)" d="M7.211 1.609c-0.003 0-0.007-0-0.010-0.001-0.005-0.001-0.009-0.004-0.013-0.007s-0.007-0.007-0.010-0.011c-0.003-0.004-0.004-0.009-0.005-0.014s-0-0.010 0.001-0.015l0.365-1.32c0.001-0.005 0.004-0.009 0.007-0.013s0.007-0.007 0.011-0.010c0.004-0.003 0.009-0.004 0.014-0.005s0.010-0 0.015 0.001c0.005 0.001 0.009 0.004 0.013 0.007s0.007 0.007 0.010 0.011 0.004 0.009 0.005 0.014c0.001 0.005 0 0.010-0.001 0.015l-0.365 1.32c-0.002 0.008-0.007 0.016-0.013 0.021s-0.015 0.008-0.023 0.008z"></path>
<path fill="#0f0f0f" style="fill: var(--color2, #0f0f0f)" d="M29.789 6.042c-0.007-0-0.015-0.002-0.021-0.006s-0.011-0.010-0.014-0.017-0.004-0.014-0.003-0.022c0.001-0.007 0.004-0.014 0.009-0.020 0.048-0.053 0.096-0.106 0.143-0.159 0.007-0.007 0.016-0.011 0.026-0.011s0.019 0.003 0.027 0.010 0.012 0.016 0.013 0.025c0.001 0.010-0.002 0.019-0.008 0.027-0.047 0.053-0.095 0.106-0.144 0.159-0.004 0.004-0.008 0.007-0.013 0.009s-0.010 0.003-0.015 0.003zM30.234 5.535c-0.007 0-0.015-0.002-0.021-0.006s-0.011-0.010-0.014-0.016c-0.003-0.007-0.004-0.014-0.003-0.021s0.004-0.014 0.009-0.020c0.101-0.12 0.198-0.24 0.289-0.357 0.003-0.004 0.007-0.007 0.011-0.010s0.009-0.004 0.014-0.005c0.005-0.001 0.010-0 0.015 0.001s0.009 0.004 0.013 0.007c0.004 0.003 0.007 0.007 0.010 0.011s0.004 0.009 0.005 0.014c0.001 0.005 0 0.010-0.001 0.015s-0.004 0.009-0.007 0.013c-0.092 0.118-0.189 0.239-0.291 0.359-0.004 0.004-0.008 0.008-0.013 0.010s-0.011 0.003-0.016 0.003v0.001zM30.8 4.807c-0.008 0-0.016-0.002-0.022-0.007-0.004-0.003-0.008-0.007-0.010-0.011s-0.005-0.009-0.005-0.014c-0.001-0.005-0.001-0.010 0-0.015s0.003-0.010 0.006-0.014c0.092-0.128 0.178-0.256 0.258-0.38 0.006-0.008 0.014-0.014 0.024-0.016s0.020-0 0.028 0.005 0.014 0.014 0.017 0.023c0.002 0.010 0.001 0.020-0.004 0.028-0.080 0.125-0.167 0.254-0.26 0.383-0.004 0.005-0.008 0.009-0.014 0.011s-0.011 0.004-0.018 0.004v0.001zM31.295 4.030c-0.007-0-0.013-0.002-0.019-0.005s-0.011-0.008-0.014-0.014-0.005-0.012-0.005-0.019c-0-0.007 0.002-0.013 0.005-0.019 0.077-0.139 0.147-0.276 0.206-0.409 0.005-0.009 0.012-0.015 0.022-0.018s0.019-0.003 0.028 0.001c0.009 0.004 0.016 0.011 0.020 0.020s0.004 0.019 0 0.028c-0.061 0.134-0.131 0.273-0.209 0.414-0.003 0.006-0.008 0.011-0.014 0.014s-0.013 0.005-0.019 0.005v0.001zM31.672 3.19c-0.004-0-0.008-0.001-0.012-0.002s-0.009-0.004-0.013-0.007c-0.004-0.003-0.007-0.007-0.009-0.012s-0.004-0.009-0.004-0.014c-0-0.005 0-0.010 0.002-0.015 0.048-0.144 0.086-0.291 0.113-0.44 0.002-0.010 0.008-0.018 0.016-0.024s0.018-0.008 0.028-0.006c0.010 0.002 0.019 0.007 0.024 0.015s0.008 0.018 0.007 0.028c-0.027 0.153-0.066 0.304-0.115 0.451-0.003 0.007-0.008 0.014-0.014 0.018s-0.014 0.007-0.022 0.007v0.001zM31.821 2.286c-0.010 0-0.020-0.004-0.027-0.011s-0.011-0.016-0.012-0.026c-0.004-0.15-0.029-0.299-0.074-0.443-0.002-0.005-0.003-0.010-0.003-0.015s0.002-0.010 0.004-0.015c0.002-0.005 0.006-0.009 0.009-0.012s0.009-0.006 0.014-0.008c0.005-0.002 0.010-0.002 0.015-0.002s0.010 0.002 0.015 0.005c0.005 0.003 0.009 0.006 0.012 0.010s0.006 0.009 0.007 0.014c0.047 0.15 0.073 0.306 0.077 0.463 0 0.005-0.001 0.010-0.003 0.015s-0.005 0.009-0.008 0.013c-0.003 0.004-0.008 0.007-0.012 0.009s-0.010 0.003-0.015 0.003l-0.001 0zM22.255 1.591c-0.009 0-0.018-0.003-0.025-0.009s-0.012-0.014-0.013-0.023c-0.001-0.009 0.001-0.018 0.006-0.026s0.013-0.014 0.021-0.016c0.147-0.045 0.296-0.090 0.442-0.134 0.005-0.002 0.010-0.003 0.015-0.002s0.010 0.002 0.015 0.004c0.005 0.002 0.009 0.006 0.012 0.010s0.006 0.009 0.007 0.014 0.002 0.010 0.001 0.016c-0.001 0.005-0.002 0.010-0.005 0.015s-0.006 0.008-0.010 0.012c-0.004 0.003-0.009 0.005-0.014 0.006-0.146 0.043-0.294 0.087-0.441 0.133-0.004 0.001-0.008 0.002-0.011 0.002zM31.542 1.42c-0.006 0-0.012-0.002-0.018-0.004s-0.010-0.007-0.014-0.012c-0.087-0.122-0.191-0.232-0.309-0.326-0.008-0.006-0.013-0.016-0.014-0.026s0.002-0.020 0.008-0.028c0.006-0.008 0.016-0.013 0.026-0.014s0.020 0.002 0.028 0.008c0.123 0.098 0.232 0.213 0.323 0.341 0.006 0.008 0.008 0.019 0.006 0.029s-0.007 0.019-0.016 0.025c-0.006 0.005-0.014 0.007-0.022 0.007v-0zM23.14 1.33c-0.009-0-0.018-0.004-0.025-0.010s-0.011-0.014-0.013-0.024 0.001-0.018 0.006-0.026c0.005-0.008 0.013-0.013 0.021-0.016 0.149-0.042 0.299-0.083 0.446-0.122 0.010-0.002 0.020-0 0.028 0.005s0.014 0.013 0.017 0.023c0.003 0.009 0.001 0.019-0.003 0.028s-0.012 0.015-0.022 0.018c-0.146 0.039-0.296 0.080-0.445 0.122-0.003 0.001-0.007 0.002-0.011 0.002v-0zM24.031 1.092c-0.009 0-0.019-0.003-0.026-0.009s-0.012-0.015-0.013-0.024c-0.001-0.009 0.001-0.019 0.007-0.027s0.013-0.013 0.023-0.015c0.151-0.038 0.302-0.075 0.449-0.11 0.005-0.002 0.010-0.002 0.016-0.002s0.010 0.002 0.015 0.005c0.005 0.003 0.009 0.006 0.012 0.010s0.006 0.009 0.007 0.014 0.001 0.011 0 0.016c-0.001 0.005-0.003 0.010-0.006 0.015s-0.007 0.008-0.011 0.011c-0.005 0.003-0.009 0.005-0.015 0.005-0.147 0.035-0.298 0.071-0.448 0.109-0.003 0.001-0.006 0.001-0.009 0.001zM24.93 0.88c-0.009-0-0.018-0.004-0.025-0.010s-0.011-0.015-0.012-0.024 0.001-0.019 0.007-0.026c0.005-0.008 0.013-0.013 0.023-0.015 0.152-0.033 0.304-0.065 0.452-0.095 0.005-0.001 0.010-0.001 0.015-0s0.010 0.003 0.014 0.006c0.004 0.003 0.008 0.006 0.011 0.011s0.005 0.009 0.006 0.014c0.001 0.005 0.001 0.010 0 0.015s-0.003 0.010-0.006 0.014c-0.003 0.004-0.006 0.008-0.011 0.011s-0.009 0.005-0.014 0.006c-0.148 0.030-0.299 0.061-0.451 0.095-0.003 0.001-0.005 0.001-0.008 0.001h-0zM30.837 0.841c-0.006 0-0.012-0.001-0.017-0.004-0.136-0.068-0.277-0.125-0.422-0.171-0.009-0.004-0.017-0.010-0.021-0.019s-0.005-0.019-0.002-0.028c0.003-0.009 0.009-0.017 0.018-0.022s0.019-0.006 0.028-0.003c0.148 0.047 0.293 0.106 0.433 0.175 0.008 0.004 0.014 0.010 0.017 0.018s0.005 0.017 0.003 0.025c-0.002 0.008-0.007 0.016-0.014 0.021s-0.015 0.008-0.024 0.008l0.001 0zM25.835 0.699c-0.009-0-0.019-0.004-0.026-0.010s-0.011-0.015-0.012-0.025 0.002-0.019 0.008-0.027c0.006-0.008 0.014-0.013 0.023-0.015 0.154-0.028 0.307-0.053 0.455-0.077 0.010-0.001 0.020 0.002 0.027 0.008s0.013 0.015 0.015 0.025-0.001 0.020-0.006 0.028c-0.006 0.008-0.014 0.014-0.024 0.016-0.148 0.023-0.301 0.049-0.454 0.077-0.002 0-0.004 0.001-0.006 0.001zM26.746 0.556c-0.010 0.001-0.020-0.003-0.027-0.010s-0.012-0.016-0.013-0.026 0.003-0.020 0.009-0.028c0.007-0.008 0.016-0.012 0.026-0.013 0.155-0.021 0.31-0.039 0.459-0.055 0.005-0.001 0.010-0.001 0.015 0.001s0.010 0.004 0.014 0.007c0.004 0.003 0.008 0.007 0.010 0.012s0.004 0.010 0.005 0.015 0 0.010-0.001 0.015c-0.002 0.005-0.004 0.010-0.007 0.014s-0.008 0.007-0.012 0.010-0.010 0.004-0.015 0.004c-0.149 0.016-0.303 0.034-0.457 0.055l-0.005 0zM29.963 0.552c-0.003-0-0.005-0-0.008-0.001-0.142-0.029-0.295-0.054-0.452-0.073-0.005-0-0.011-0.002-0.016-0.004s-0.009-0.006-0.013-0.010c-0.003-0.004-0.006-0.009-0.008-0.014s-0.002-0.011-0.001-0.016c0.001-0.005 0.003-0.010 0.006-0.015s0.007-0.009 0.011-0.012c0.005-0.003 0.010-0.005 0.015-0.006s0.011-0.001 0.016 0.001c0.16 0.019 0.314 0.044 0.459 0.074 0.009 0.002 0.017 0.007 0.023 0.015s0.008 0.017 0.007 0.026-0.005 0.018-0.012 0.025c-0.007 0.006-0.016 0.010-0.026 0.010l-0.002-0.001zM27.664 0.459c-0.010-0-0.019-0.004-0.026-0.011s-0.011-0.016-0.012-0.026 0.003-0.019 0.010-0.027c0.006-0.007 0.016-0.012 0.025-0.013 0.158-0.012 0.313-0.020 0.462-0.026 0.010-0 0.020 0.004 0.027 0.010s0.012 0.016 0.012 0.026c0 0.010-0.003 0.020-0.010 0.028s-0.017 0.012-0.027 0.012c-0.148 0.006-0.303 0.015-0.459 0.026l-0.003 0zM29.048 0.438h-0.002c-0.147-0.008-0.302-0.013-0.459-0.013-0.010-0.001-0.019-0.005-0.026-0.012s-0.010-0.017-0.010-0.026c0-0.010 0.004-0.019 0.010-0.026s0.016-0.011 0.026-0.012c0.159 0 0.315 0.005 0.463 0.013 0.010 0.001 0.019 0.005 0.025 0.013s0.010 0.017 0.010 0.027c-0 0.010-0.004 0.019-0.011 0.026s-0.016 0.011-0.026 0.011h0z"></path>
<path fill="#0f0f0f" style="fill: var(--color2, #0f0f0f)" d="M3.298 18.871c-0.159-0.003-0.315-0.010-0.463-0.021-0.005-0-0.010-0.001-0.015-0.003s-0.009-0.005-0.013-0.009c-0.004-0.004-0.006-0.008-0.008-0.013s-0.002-0.010-0.002-0.015c0-0.005 0.002-0.010 0.004-0.015s0.006-0.009 0.010-0.012c0.004-0.003 0.009-0.006 0.014-0.007s0.010-0.002 0.016-0.001c0.147 0.011 0.301 0.017 0.459 0.021 0.010 0.001 0.019 0.005 0.026 0.012s0.010 0.017 0.010 0.026-0.004 0.019-0.010 0.026c-0.007 0.007-0.016 0.011-0.026 0.012h-0.001zM3.759 18.869c-0.005 0-0.010-0.001-0.015-0.003s-0.009-0.005-0.013-0.008c-0.004-0.003-0.007-0.008-0.009-0.012s-0.003-0.010-0.003-0.015c-0-0.005 0.001-0.010 0.003-0.015s0.005-0.009 0.008-0.013c0.004-0.004 0.008-0.006 0.012-0.009s0.010-0.003 0.015-0.003c0.149-0.004 0.303-0.011 0.46-0.021 0.010-0.001 0.020 0.003 0.028 0.009s0.012 0.016 0.013 0.026c0.001 0.010-0.003 0.020-0.010 0.028s-0.016 0.012-0.026 0.013c-0.158 0.010-0.313 0.017-0.462 0.021l-0.001 0zM4.68 18.811c-0.010-0-0.019-0.004-0.026-0.011s-0.011-0.016-0.011-0.026c-0-0.010 0.003-0.019 0.009-0.026s0.015-0.012 0.025-0.013c0.149-0.014 0.303-0.032 0.458-0.051 0.005-0.001 0.010-0 0.015 0.001s0.009 0.004 0.013 0.007c0.004 0.003 0.007 0.007 0.010 0.011s0.004 0.009 0.005 0.014c0.001 0.005 0 0.010-0.001 0.015s-0.004 0.009-0.007 0.013c-0.003 0.004-0.007 0.007-0.011 0.010s-0.009 0.004-0.014 0.005c-0.156 0.020-0.31 0.037-0.46 0.051l-0.004 0zM2.378 18.802h-0.005c-0.16-0.023-0.314-0.052-0.457-0.085-0.010-0.002-0.018-0.008-0.024-0.017s-0.007-0.019-0.005-0.029c0.002-0.010 0.008-0.018 0.017-0.024s0.019-0.007 0.029-0.005c0.14 0.033 0.293 0.062 0.45 0.084 0.009 0.002 0.018 0.007 0.024 0.014s0.009 0.017 0.008 0.027c-0.001 0.010-0.005 0.019-0.012 0.025s-0.016 0.010-0.026 0.011l0-0zM5.596 18.697c-0.010-0-0.019-0.004-0.026-0.010s-0.011-0.016-0.012-0.025 0.002-0.019 0.008-0.027c0.006-0.008 0.014-0.013 0.024-0.014 0.149-0.022 0.301-0.047 0.455-0.074 0.010-0.001 0.020 0.001 0.028 0.007s0.013 0.015 0.015 0.024c0.002 0.010-0 0.020-0.006 0.028s-0.014 0.014-0.024 0.016c-0.154 0.027-0.307 0.052-0.456 0.074l-0.006 0.001zM1.482 18.585c-0.005 0-0.009-0.001-0.013-0.002-0.147-0.053-0.289-0.119-0.424-0.195-0.009-0.005-0.015-0.013-0.018-0.023s-0.001-0.020 0.004-0.029c0.005-0.009 0.013-0.015 0.023-0.018s0.020-0.001 0.029 0.004c0.132 0.075 0.27 0.138 0.413 0.19 0.008 0.003 0.016 0.009 0.020 0.017s0.006 0.017 0.004 0.026c-0.002 0.009-0.006 0.017-0.013 0.023s-0.016 0.009-0.025 0.009zM6.506 18.539c-0.010 0-0.019-0.003-0.026-0.010s-0.012-0.015-0.013-0.025c-0.001-0.010 0.002-0.019 0.008-0.027s0.015-0.013 0.024-0.014c0.147-0.029 0.299-0.060 0.452-0.092 0.010-0.002 0.020 0 0.028 0.006s0.014 0.014 0.016 0.024c0.002 0.010 0 0.020-0.005 0.028s-0.014 0.015-0.023 0.017c-0.153 0.032-0.305 0.064-0.453 0.092-0.003 0-0.005 0.001-0.008 0.001v0zM7.409 18.347c-0.009-0-0.019-0.004-0.026-0.010s-0.011-0.015-0.013-0.024c-0.001-0.009 0.001-0.019 0.007-0.026s0.013-0.013 0.023-0.015c0.147-0.034 0.298-0.070 0.448-0.107 0.005-0.001 0.010-0.001 0.015-0.001s0.010 0.003 0.014 0.005c0.004 0.003 0.008 0.006 0.011 0.010s0.005 0.009 0.006 0.014c0.001 0.005 0.002 0.010 0.001 0.015s-0.003 0.010-0.005 0.014c-0.003 0.004-0.006 0.008-0.010 0.011s-0.009 0.005-0.014 0.006c-0.151 0.037-0.302 0.073-0.449 0.108-0.003 0.001-0.005 0.001-0.008 0.001l-0 0zM8.305 18.125c-0.009-0-0.018-0.004-0.025-0.010s-0.011-0.015-0.013-0.024c-0.001-0.009 0.001-0.018 0.006-0.026s0.013-0.013 0.022-0.016c0.147-0.039 0.297-0.079 0.445-0.12 0.010-0.002 0.020-0.001 0.029 0.004s0.015 0.013 0.018 0.023c0.003 0.010 0.001 0.020-0.003 0.029s-0.013 0.015-0.023 0.018c-0.149 0.041-0.299 0.082-0.446 0.12-0.003 0.001-0.007 0.001-0.010 0.001v0zM0.693 18.121c-0.010 0-0.019-0.004-0.026-0.010-0.115-0.107-0.214-0.231-0.293-0.367-0.005-0.009-0.005-0.019-0.003-0.029s0.009-0.017 0.018-0.022 0.019-0.006 0.028-0.004c0.010 0.002 0.018 0.008 0.023 0.017 0.075 0.13 0.17 0.247 0.279 0.35 0.006 0.005 0.010 0.012 0.011 0.020s0.001 0.015-0.002 0.023c-0.003 0.007-0.008 0.013-0.014 0.018s-0.014 0.007-0.022 0.007v-0zM9.194 17.878c-0.009 0-0.018-0.003-0.025-0.009s-0.012-0.014-0.013-0.024c-0.001-0.009 0.001-0.018 0.006-0.026s0.013-0.014 0.021-0.016c0.146-0.043 0.294-0.087 0.442-0.132 0.010-0.002 0.020-0.001 0.028 0.004s0.015 0.013 0.018 0.022 0.002 0.019-0.002 0.028c-0.004 0.009-0.012 0.016-0.021 0.019-0.148 0.045-0.297 0.089-0.443 0.132-0.003 0.001-0.007 0.001-0.011 0.001v0zM10.077 17.609c-0.009-0-0.018-0.003-0.025-0.009s-0.011-0.014-0.013-0.023c-0.001-0.009 0.001-0.018 0.005-0.026s0.012-0.014 0.021-0.017c0.145-0.047 0.291-0.094 0.439-0.142 0.010-0.003 0.020-0.002 0.029 0.002s0.016 0.013 0.019 0.022c0.003 0.010 0.002 0.020-0.002 0.029s-0.013 0.016-0.022 0.019c-0.148 0.049-0.294 0.096-0.439 0.142-0.004 0.001-0.008 0.002-0.012 0.002zM0.241 17.334c-0.009-0-0.017-0.003-0.024-0.009s-0.012-0.013-0.014-0.022c-0.028-0.129-0.042-0.261-0.042-0.394 0-0.024 0-0.049 0.001-0.074-0-0.005 0.001-0.011 0.003-0.015s0.005-0.009 0.009-0.013c0.004-0.004 0.008-0.007 0.013-0.009s0.010-0.003 0.015-0.003 0.010 0.001 0.015 0.004c0.005 0.002 0.009 0.005 0.012 0.009s0.006 0.009 0.008 0.014c0.002 0.005 0.002 0.010 0.002 0.015 0 0.024-0.001 0.048-0.001 0.071-0 0.127 0.013 0.253 0.040 0.377 0.002 0.010 0 0.020-0.005 0.029s-0.014 0.015-0.024 0.017c-0.003 0.001-0.006 0.001-0.008 0.001zM10.954 17.32c-0.009 0-0.018-0.003-0.025-0.009s-0.012-0.014-0.013-0.023c-0.002-0.009 0-0.018 0.005-0.026s0.012-0.014 0.021-0.017c0.144-0.049 0.289-0.1 0.436-0.151 0.010-0.003 0.020-0.003 0.029 0.002s0.016 0.012 0.020 0.022c0.003 0.010 0.003 0.020-0.002 0.029s-0.012 0.016-0.022 0.020c-0.146 0.052-0.292 0.102-0.437 0.151-0.004 0.001-0.008 0.002-0.012 0.002zM0.263 16.421c-0.003 0-0.006-0-0.009-0.001-0.010-0.002-0.019-0.008-0.024-0.017s-0.007-0.019-0.005-0.029c0.035-0.151 0.079-0.3 0.134-0.446 0.002-0.005 0.004-0.010 0.007-0.014s0.008-0.007 0.012-0.010c0.005-0.002 0.010-0.004 0.015-0.004s0.011 0.001 0.015 0.002 0.009 0.005 0.013 0.008c0.004 0.004 0.007 0.008 0.009 0.013s0.003 0.010 0.003 0.015-0.001 0.010-0.003 0.015c-0.053 0.142-0.097 0.288-0.131 0.436-0.002 0.009-0.007 0.016-0.014 0.021s-0.015 0.009-0.024 0.009zM0.577 15.557c-0.007 0-0.013-0.002-0.019-0.005s-0.011-0.008-0.014-0.013c-0.003-0.005-0.006-0.012-0.006-0.018s0.001-0.013 0.004-0.019c0.064-0.133 0.138-0.27 0.219-0.409 0.005-0.008 0.014-0.014 0.023-0.016s0.020-0.001 0.028 0.004c0.008 0.005 0.015 0.013 0.018 0.022s0.002 0.019-0.002 0.028c-0.080 0.137-0.152 0.273-0.216 0.404-0.003 0.007-0.008 0.012-0.014 0.016s-0.013 0.006-0.020 0.006h0zM1.038 14.758c-0.008-0-0.015-0.002-0.021-0.006-0.008-0.006-0.014-0.014-0.016-0.024s-0-0.020 0.005-0.028c0.082-0.124 0.171-0.251 0.265-0.379 0.006-0.008 0.015-0.014 0.025-0.015s0.020 0.001 0.029 0.007c0.008 0.006 0.014 0.015 0.015 0.025s-0.001 0.020-0.007 0.029c-0.093 0.127-0.182 0.253-0.263 0.376-0.004 0.005-0.009 0.009-0.014 0.012s-0.012 0.004-0.018 0.004zM1.582 14.015c-0.008-0-0.017-0.003-0.023-0.008-0.004-0.003-0.007-0.007-0.010-0.011s-0.004-0.009-0.005-0.014c-0.001-0.005-0-0.010 0.001-0.015s0.004-0.009 0.007-0.013c0.093-0.117 0.193-0.237 0.294-0.357 0.003-0.004 0.007-0.008 0.012-0.010s0.010-0.004 0.015-0.005c0.005-0.001 0.011-0 0.016 0.001s0.010 0.004 0.014 0.008c0.004 0.003 0.007 0.008 0.010 0.012s0.004 0.010 0.004 0.015c0 0.005-0.001 0.011-0.002 0.015s-0.005 0.009-0.008 0.013c-0.102 0.119-0.2 0.238-0.293 0.354-0.004 0.005-0.008 0.008-0.014 0.011s-0.011 0.004-0.017 0.004v-0.001zM2.18 13.313c-0.007-0-0.015-0.002-0.021-0.006s-0.011-0.010-0.014-0.017c-0.003-0.007-0.004-0.014-0.003-0.022s0.004-0.014 0.009-0.020c0.101-0.111 0.207-0.225 0.315-0.338 0.003-0.004 0.007-0.008 0.012-0.011s0.010-0.004 0.015-0.005c0.005-0.001 0.011 0 0.016 0.002s0.010 0.005 0.014 0.008c0.004 0.004 0.007 0.008 0.009 0.013s0.003 0.010 0.003 0.016c-0 0.005-0.001 0.011-0.004 0.016s-0.006 0.009-0.010 0.013c-0.108 0.113-0.213 0.226-0.314 0.337-0.004 0.004-0.008 0.008-0.013 0.010s-0.010 0.004-0.016 0.004v-0.001zM2.817 12.645c-0.008 0-0.015-0.002-0.021-0.007s-0.011-0.010-0.014-0.017c-0.003-0.007-0.004-0.015-0.002-0.022s0.005-0.014 0.010-0.020c0.107-0.107 0.218-0.215 0.33-0.323 0.008-0.005 0.017-0.008 0.026-0.007s0.018 0.005 0.024 0.012c0.006 0.007 0.010 0.016 0.011 0.025s-0.003 0.018-0.009 0.026c-0.112 0.108-0.223 0.216-0.329 0.322-0.007 0.007-0.017 0.012-0.027 0.012v-0.001zM3.482 12.006c-0.008 0-0.015-0.002-0.022-0.007s-0.011-0.011-0.014-0.018c-0.003-0.007-0.003-0.015-0.002-0.023s0.006-0.014 0.011-0.020c0.111-0.103 0.226-0.207 0.342-0.311 0.004-0.004 0.008-0.007 0.013-0.009s0.010-0.003 0.015-0.003c0.005 0 0.010 0.001 0.015 0.004s0.009 0.005 0.013 0.009c0.004 0.004 0.006 0.009 0.008 0.014s0.002 0.010 0.002 0.015c-0 0.005-0.002 0.010-0.005 0.015s-0.006 0.009-0.010 0.012c-0.116 0.103-0.23 0.208-0.341 0.31-0.007 0.007-0.017 0.011-0.027 0.011l0.001-0.001zM4.17 11.391c-0.008 0-0.015-0.002-0.022-0.007s-0.011-0.011-0.014-0.018c-0.003-0.007-0.003-0.015-0.001-0.023s0.006-0.014 0.012-0.019c0.114-0.099 0.233-0.2 0.352-0.3 0.008-0.006 0.018-0.009 0.028-0.007s0.019 0.006 0.025 0.014 0.010 0.017 0.009 0.027c-0.001 0.010-0.005 0.019-0.012 0.026-0.118 0.099-0.236 0.2-0.35 0.299-0.007 0.006-0.016 0.010-0.026 0.010l0.001-0.001z"></path>
<path fill="#0f0f0f" style="fill: var(--color2, #0f0f0f)" d="M22.456 25.464c-0.010 0-0.020-0.004-0.027-0.011s-0.011-0.017-0.012-0.027l-0.004-0.204c0-0.010 0.005-0.019 0.012-0.026s0.016-0.011 0.026-0.011c0.010-0 0.019 0.003 0.027 0.010s0.012 0.016 0.013 0.025l0.004 0.204c0 0.005-0.001 0.010-0.003 0.015s-0.005 0.009-0.008 0.013-0.008 0.007-0.012 0.009c-0.005 0.002-0.010 0.003-0.015 0.003h-0.001z"></path>
<path fill="#0f0f0f" style="fill: var(--color2, #0f0f0f)" d="M22.472 26.179c-0.010 0-0.020-0.004-0.027-0.011s-0.011-0.017-0.012-0.027l-0.004-0.204c-0-0.005 0-0.011 0.002-0.015s0.004-0.010 0.008-0.013c0.003-0.004 0.008-0.007 0.013-0.009s0.010-0.003 0.015-0.003c0.005-0 0.011 0.001 0.015 0.003s0.009 0.005 0.013 0.009c0.004 0.004 0.007 0.008 0.008 0.013s0.003 0.010 0.003 0.015l0.004 0.204c0 0.005-0.001 0.010-0.003 0.015s-0.005 0.009-0.008 0.013-0.008 0.007-0.012 0.009c-0.005 0.002-0.010 0.003-0.015 0.003h-0.001z"></path>
<path fill="#0f0f0f" style="fill: var(--color2, #0f0f0f)" d="M22.008 25.722c-0.010-0.001-0.019-0.005-0.026-0.012s-0.010-0.017-0.010-0.026 0.004-0.019 0.010-0.026c0.007-0.007 0.016-0.011 0.026-0.012l0.202-0.002c0.005-0 0.011 0 0.016 0.002s0.009 0.005 0.013 0.008c0.004 0.004 0.007 0.008 0.009 0.013s0.003 0.010 0.003 0.015-0.001 0.011-0.003 0.015c-0.002 0.005-0.005 0.009-0.009 0.013s-0.008 0.006-0.013 0.008c-0.005 0.002-0.010 0.003-0.016 0.002l-0.202 0.002z"></path>
<path fill="#0f0f0f" style="fill: var(--color2, #0f0f0f)" d="M22.714 25.718c-0.010-0.001-0.019-0.005-0.026-0.012s-0.010-0.017-0.010-0.026 0.004-0.019 0.010-0.026c0.007-0.007 0.016-0.011 0.026-0.012l0.202-0.002c0.010 0.001 0.019 0.005 0.026 0.012s0.010 0.017 0.010 0.026-0.004 0.019-0.010 0.026c-0.007 0.007-0.016 0.011-0.026 0.012l-0.202 0.002z"></path>
<path fill="#0f0f0f" style="fill: var(--color2, #0f0f0f)" d="M13.795 3.729c-0.043-0-0.085-0.008-0.125-0.024-0.044-0.017-0.084-0.043-0.118-0.075s-0.061-0.072-0.079-0.115c-0.037-0.086-0.040-0.184-0.006-0.272s0.1-0.159 0.186-0.199c0.042-0.019 0.087-0.029 0.133-0.030s0.092 0.007 0.134 0.023c0.044 0.017 0.084 0.043 0.117 0.075s0.061 0.072 0.079 0.115c0.037 0.086 0.040 0.184 0.006 0.272s-0.1 0.159-0.186 0.199c-0.045 0.020-0.093 0.031-0.142 0.031zM13.684 3.115c-0.067 0.031-0.119 0.087-0.146 0.157s-0.024 0.146 0.005 0.213c0.014 0.034 0.035 0.064 0.062 0.090s0.058 0.046 0.092 0.059c0.033 0.013 0.069 0.019 0.104 0.018s0.071-0.009 0.103-0.024c0.067-0.031 0.119-0.087 0.145-0.157s0.024-0.146-0.005-0.214c-0.014-0.034-0.035-0.064-0.062-0.090s-0.058-0.046-0.092-0.059c-0.033-0.013-0.069-0.019-0.104-0.018s-0.071 0.009-0.103 0.024z"></path>
</symbol>
</defs>
</svg>
